M48
;GenerationSoftware,Autodesk,EAGLE,9.5.2*%
;CreationDate,2020-01-12T10:41:22Z*%
FMAT,2
ICI,OFF
METRIC,TZ,000.000
T10C0.350
T9C0.508
T8C0.600
T7C0.700
T6C0.800
T5C0.890
T4C0.914
T3C1.100
T2C3.000
T1C3.250
%
G90
M71
T1
X5370Y17150
X5370Y27310
T2
X20000Y75000
X62000Y75000
X20000Y5000
X62000Y5000
T3
X9000Y74000
X2000Y74000
X9000Y50000
X9000Y38000
X2000Y38000
X2000Y50000
X9000Y62000
X2000Y62000
T4
X21273Y57785
X11112Y4445
X53340Y69215
X55562Y69215
X18733Y25400
X56197Y11430
X24130Y33655
X26035Y33655
X57785Y69215
X31750Y33655
X35560Y33655
X27940Y33655
X37465Y33655
X29845Y33655
X33655Y33655
X21273Y55245
T5
X14260Y22860
X11720Y21590
X14260Y20320
X11720Y19050
X14260Y25400
X11720Y24130
T6
X3400Y70600
X3400Y77400
X3400Y65400
X3400Y46600
X3400Y53400
X3400Y34600
X3400Y41400
X3400Y58600
T7
X36500Y70485
X1651Y8984
X1651Y1684
X48500Y70485
X46500Y70485
X44500Y70485
X42500Y70485
X40500Y70485
X26500Y70485
X28500Y70485
X6701Y6934
X5501Y6134
X6701Y5334
X5501Y4534
X6701Y3734
X30500Y70485
X32500Y70485
X34500Y70485
X38500Y70485
T8
X11500Y76850
X12400Y50000
X11500Y52850
X11500Y71150
X11500Y35150
X11500Y59150
X12400Y38000
X11500Y40850
X12400Y62000
X11500Y64850
X12400Y74000
X11500Y47150
T9
X31875Y60500
X29375Y60500
X28125Y60500
X61912Y50750
X61912Y49500
X61912Y48250
X61912Y47000
X61912Y45750
X61912Y44500
X61912Y35510
X61912Y33010
X61912Y31760
X61912Y30510
X61912Y29260
X61912Y34260
X30625Y60500
X61595Y61257
X61595Y60007
X61595Y58757
X41875Y60500
X40625Y60500
X39375Y60500
X38125Y60500
X36875Y60500
X35625Y60500
X34375Y60500
X33125Y60500
T10
X49530Y46065
X49720Y47244
X55562Y52705
X49530Y52705
X23177Y35116
X16510Y31750
X16510Y27940
X24447Y35116
X14922Y18415
X14922Y16192
X36830Y31432
X36830Y22860
X33993Y42200
X32575Y35370
X26352Y45402
X35243Y37632
X40005Y40005
X26670Y9843
X63881Y26035
X35243Y50165
X16192Y62547
X14922Y50165
X25400Y17145
X42228Y31750
X37814Y20923
X42538Y40012
X37084Y45466
X34036Y45847
X36202Y38411
X38037Y46462
X33973Y46990
X38989Y47371
X43498Y48625
X41720Y23495
X30797Y47307
X47942Y19050
X50482Y13652
X54610Y13652
X20638Y12969
X10160Y7937
X30162Y52832
X46622Y52959
X31028Y53888
X59055Y55245
X55562Y49530
X55562Y46990
X55562Y44450
X30162Y38418
X47625Y51435
X47625Y34290
X19368Y50101
X16192Y36195
X63881Y25082
X63881Y24130
X47942Y62547
X46609Y53911
X24130Y2857
X46720Y38481
X47942Y17844
X41025Y22610
X14795Y68637
X18098Y62547
X45974Y57785
X45885Y55715
X51752Y49212
X45402Y45720
X18415Y35179
X17463Y35179
X16510Y35179
X26352Y2857
X25273Y2857
X13335Y1905
X13335Y2857
X13335Y3810
X13335Y4763
X13652Y16192
X13652Y18415
X26352Y50482
X14795Y62547
M30