G04 EAGLE Gerber RS-274X export*
G75*
%MOMM*%
%FSLAX34Y34*%
%LPD*%
%INSoldermask Top*%
%IPPOS*%
%AMOC8*
5,1,8,0,0,1.08239X$1,22.5*%
G01*
%ADD10R,1.295400X0.406400*%
%ADD11R,0.406400X1.295400*%
%ADD12R,2.895600X0.838200*%
%ADD13R,1.499600X1.499600*%
%ADD14C,1.499600*%
%ADD15C,3.351600*%
%ADD16C,1.409600*%
%ADD17C,1.201600*%
%ADD18C,1.209600*%
%ADD19C,0.600000*%
%ADD20R,2.400650X1.198359*%
%ADD21R,2.401041X1.203691*%
%ADD22C,0.801600*%
%ADD23C,1.309600*%
%ADD24R,1.201600X1.101600*%
%ADD25C,1.524000*%
%ADD26R,1.101600X1.201600*%
%ADD27R,0.901600X0.901600*%
%ADD28R,2.301600X0.701600*%
%ADD29R,2.641600X1.621600*%
%ADD30R,1.576600X0.551600*%
%ADD31C,1.117600*%
%ADD32R,1.501600X1.101600*%
%ADD33C,1.309600*%
%ADD34R,1.309600X1.309600*%
%ADD35C,5.943600*%
%ADD36P,1.842011X8X22.500000*%
%ADD37R,1.270000X1.701800*%
%ADD38C,0.858000*%


D10*
X355250Y478825D03*
X355250Y473825D03*
X355250Y468825D03*
X355250Y463825D03*
X355250Y458825D03*
X355250Y453825D03*
X355250Y448825D03*
X355250Y443825D03*
X355250Y438825D03*
X355250Y433825D03*
X355250Y428825D03*
X355250Y423825D03*
X355250Y418825D03*
X355250Y413825D03*
X355250Y408825D03*
X355250Y403825D03*
D11*
X375250Y383825D03*
X380250Y383825D03*
X385250Y383825D03*
X390250Y383825D03*
X395250Y383825D03*
X400250Y383825D03*
X405250Y383825D03*
X410250Y383825D03*
X415250Y383825D03*
X420250Y383825D03*
X425250Y383825D03*
X430250Y383825D03*
X435250Y383825D03*
X440250Y383825D03*
X445250Y383825D03*
X450250Y383825D03*
D10*
X470250Y403825D03*
X470250Y408825D03*
X470250Y413825D03*
X470250Y418825D03*
X470250Y423825D03*
X470250Y428825D03*
X470250Y433825D03*
X470250Y438825D03*
X470250Y443825D03*
X470250Y448825D03*
X470250Y453825D03*
X470250Y458825D03*
X470250Y463825D03*
X470250Y468825D03*
X470250Y473825D03*
X470250Y478825D03*
D11*
X450250Y498825D03*
X445250Y498825D03*
X440250Y498825D03*
X435250Y498825D03*
X430250Y498825D03*
X425250Y498825D03*
X420250Y498825D03*
X415250Y498825D03*
X410250Y498825D03*
X405250Y498825D03*
X400250Y498825D03*
X395250Y498825D03*
X390250Y498825D03*
X385250Y498825D03*
X380250Y498825D03*
X375250Y498825D03*
D12*
X553720Y552450D03*
X513080Y552450D03*
X553720Y565150D03*
X513080Y565150D03*
X553720Y577850D03*
X513080Y577850D03*
X553720Y590550D03*
X513080Y590550D03*
X553720Y603250D03*
X513080Y603250D03*
D13*
X142600Y254000D03*
D14*
X117200Y241300D03*
X142600Y228600D03*
X117200Y215900D03*
X142600Y203200D03*
X117200Y190500D03*
D15*
X53700Y273100D03*
X53700Y171500D03*
D16*
X40540Y414000D02*
X27460Y414000D01*
D17*
X90000Y380000D03*
X20000Y380000D03*
D16*
X27460Y346000D02*
X40540Y346000D01*
D18*
X109460Y408500D02*
X120540Y408500D01*
X124000Y385540D02*
X124000Y374460D01*
X120540Y351500D02*
X109460Y351500D01*
D19*
X22510Y95840D02*
X22662Y95838D01*
X22814Y95832D01*
X22966Y95823D01*
X23117Y95809D01*
X23268Y95792D01*
X23419Y95771D01*
X23569Y95746D01*
X23718Y95717D01*
X23866Y95685D01*
X24014Y95648D01*
X24161Y95609D01*
X24306Y95565D01*
X24451Y95517D01*
X24594Y95467D01*
X24736Y95412D01*
X24876Y95354D01*
X25015Y95292D01*
X25152Y95227D01*
X25288Y95158D01*
X25422Y95086D01*
X25554Y95011D01*
X25684Y94932D01*
X25812Y94850D01*
X25938Y94765D01*
X26061Y94676D01*
X26183Y94585D01*
X26302Y94490D01*
X26418Y94393D01*
X26532Y94292D01*
X26644Y94189D01*
X26753Y94083D01*
X26859Y93974D01*
X26962Y93862D01*
X27063Y93748D01*
X27160Y93632D01*
X27255Y93513D01*
X27346Y93391D01*
X27435Y93268D01*
X27520Y93142D01*
X27602Y93014D01*
X27681Y92884D01*
X27756Y92752D01*
X27828Y92618D01*
X27897Y92482D01*
X27962Y92345D01*
X28024Y92206D01*
X28082Y92066D01*
X28137Y91924D01*
X28187Y91781D01*
X28235Y91636D01*
X28279Y91491D01*
X28318Y91344D01*
X28355Y91196D01*
X28387Y91048D01*
X28416Y90899D01*
X28441Y90749D01*
X28462Y90598D01*
X28479Y90447D01*
X28493Y90296D01*
X28502Y90144D01*
X28508Y89992D01*
X28510Y89840D01*
X28508Y89688D01*
X28502Y89536D01*
X28493Y89384D01*
X28479Y89233D01*
X28462Y89082D01*
X28441Y88931D01*
X28416Y88781D01*
X28387Y88632D01*
X28355Y88484D01*
X28318Y88336D01*
X28279Y88189D01*
X28235Y88044D01*
X28187Y87899D01*
X28137Y87756D01*
X28082Y87614D01*
X28024Y87474D01*
X27962Y87335D01*
X27897Y87198D01*
X27828Y87062D01*
X27756Y86928D01*
X27681Y86796D01*
X27602Y86666D01*
X27520Y86538D01*
X27435Y86412D01*
X27346Y86289D01*
X27255Y86167D01*
X27160Y86048D01*
X27063Y85932D01*
X26962Y85818D01*
X26859Y85706D01*
X26753Y85597D01*
X26644Y85491D01*
X26532Y85388D01*
X26418Y85287D01*
X26302Y85190D01*
X26183Y85095D01*
X26061Y85004D01*
X25938Y84915D01*
X25812Y84830D01*
X25684Y84748D01*
X25554Y84669D01*
X25422Y84594D01*
X25288Y84522D01*
X25152Y84453D01*
X25015Y84388D01*
X24876Y84326D01*
X24736Y84268D01*
X24594Y84213D01*
X24451Y84163D01*
X24306Y84115D01*
X24161Y84071D01*
X24014Y84032D01*
X23866Y83995D01*
X23718Y83963D01*
X23569Y83934D01*
X23419Y83909D01*
X23268Y83888D01*
X23117Y83871D01*
X22966Y83857D01*
X22814Y83848D01*
X22662Y83842D01*
X22510Y83840D01*
X10510Y83840D01*
X10358Y83842D01*
X10206Y83848D01*
X10054Y83857D01*
X9903Y83871D01*
X9752Y83888D01*
X9601Y83909D01*
X9451Y83934D01*
X9302Y83963D01*
X9154Y83995D01*
X9006Y84032D01*
X8859Y84071D01*
X8714Y84115D01*
X8569Y84163D01*
X8426Y84213D01*
X8284Y84268D01*
X8144Y84326D01*
X8005Y84388D01*
X7868Y84453D01*
X7732Y84522D01*
X7598Y84594D01*
X7466Y84669D01*
X7336Y84748D01*
X7208Y84830D01*
X7082Y84915D01*
X6959Y85004D01*
X6837Y85095D01*
X6718Y85190D01*
X6602Y85287D01*
X6488Y85388D01*
X6376Y85491D01*
X6267Y85597D01*
X6161Y85706D01*
X6058Y85818D01*
X5957Y85932D01*
X5860Y86048D01*
X5765Y86167D01*
X5674Y86289D01*
X5585Y86412D01*
X5500Y86538D01*
X5418Y86666D01*
X5339Y86796D01*
X5264Y86928D01*
X5192Y87062D01*
X5123Y87198D01*
X5058Y87335D01*
X4996Y87474D01*
X4938Y87614D01*
X4883Y87756D01*
X4833Y87899D01*
X4785Y88044D01*
X4741Y88189D01*
X4702Y88336D01*
X4665Y88484D01*
X4633Y88632D01*
X4604Y88781D01*
X4579Y88931D01*
X4558Y89082D01*
X4541Y89233D01*
X4527Y89384D01*
X4518Y89536D01*
X4512Y89688D01*
X4510Y89840D01*
X4512Y89992D01*
X4518Y90144D01*
X4527Y90296D01*
X4541Y90447D01*
X4558Y90598D01*
X4579Y90749D01*
X4604Y90899D01*
X4633Y91048D01*
X4665Y91196D01*
X4702Y91344D01*
X4741Y91491D01*
X4785Y91636D01*
X4833Y91781D01*
X4883Y91924D01*
X4938Y92066D01*
X4996Y92206D01*
X5058Y92345D01*
X5123Y92482D01*
X5192Y92618D01*
X5264Y92752D01*
X5339Y92884D01*
X5418Y93014D01*
X5500Y93142D01*
X5585Y93268D01*
X5674Y93391D01*
X5765Y93513D01*
X5860Y93632D01*
X5957Y93748D01*
X6058Y93862D01*
X6161Y93974D01*
X6267Y94083D01*
X6376Y94189D01*
X6488Y94292D01*
X6602Y94393D01*
X6718Y94490D01*
X6837Y94585D01*
X6959Y94676D01*
X7082Y94765D01*
X7208Y94850D01*
X7336Y94932D01*
X7466Y95011D01*
X7598Y95086D01*
X7732Y95158D01*
X7868Y95227D01*
X8005Y95292D01*
X8144Y95354D01*
X8284Y95412D01*
X8426Y95467D01*
X8569Y95517D01*
X8714Y95565D01*
X8859Y95609D01*
X9006Y95648D01*
X9154Y95685D01*
X9302Y95717D01*
X9451Y95746D01*
X9601Y95771D01*
X9752Y95792D01*
X9903Y95809D01*
X10054Y95823D01*
X10206Y95832D01*
X10358Y95838D01*
X10510Y95840D01*
X22510Y95840D01*
D20*
X16507Y89848D03*
D19*
X22510Y22840D02*
X22662Y22838D01*
X22814Y22832D01*
X22966Y22823D01*
X23117Y22809D01*
X23268Y22792D01*
X23419Y22771D01*
X23569Y22746D01*
X23718Y22717D01*
X23866Y22685D01*
X24014Y22648D01*
X24161Y22609D01*
X24306Y22565D01*
X24451Y22517D01*
X24594Y22467D01*
X24736Y22412D01*
X24876Y22354D01*
X25015Y22292D01*
X25152Y22227D01*
X25288Y22158D01*
X25422Y22086D01*
X25554Y22011D01*
X25684Y21932D01*
X25812Y21850D01*
X25938Y21765D01*
X26061Y21676D01*
X26183Y21585D01*
X26302Y21490D01*
X26418Y21393D01*
X26532Y21292D01*
X26644Y21189D01*
X26753Y21083D01*
X26859Y20974D01*
X26962Y20862D01*
X27063Y20748D01*
X27160Y20632D01*
X27255Y20513D01*
X27346Y20391D01*
X27435Y20268D01*
X27520Y20142D01*
X27602Y20014D01*
X27681Y19884D01*
X27756Y19752D01*
X27828Y19618D01*
X27897Y19482D01*
X27962Y19345D01*
X28024Y19206D01*
X28082Y19066D01*
X28137Y18924D01*
X28187Y18781D01*
X28235Y18636D01*
X28279Y18491D01*
X28318Y18344D01*
X28355Y18196D01*
X28387Y18048D01*
X28416Y17899D01*
X28441Y17749D01*
X28462Y17598D01*
X28479Y17447D01*
X28493Y17296D01*
X28502Y17144D01*
X28508Y16992D01*
X28510Y16840D01*
X28508Y16688D01*
X28502Y16536D01*
X28493Y16384D01*
X28479Y16233D01*
X28462Y16082D01*
X28441Y15931D01*
X28416Y15781D01*
X28387Y15632D01*
X28355Y15484D01*
X28318Y15336D01*
X28279Y15189D01*
X28235Y15044D01*
X28187Y14899D01*
X28137Y14756D01*
X28082Y14614D01*
X28024Y14474D01*
X27962Y14335D01*
X27897Y14198D01*
X27828Y14062D01*
X27756Y13928D01*
X27681Y13796D01*
X27602Y13666D01*
X27520Y13538D01*
X27435Y13412D01*
X27346Y13289D01*
X27255Y13167D01*
X27160Y13048D01*
X27063Y12932D01*
X26962Y12818D01*
X26859Y12706D01*
X26753Y12597D01*
X26644Y12491D01*
X26532Y12388D01*
X26418Y12287D01*
X26302Y12190D01*
X26183Y12095D01*
X26061Y12004D01*
X25938Y11915D01*
X25812Y11830D01*
X25684Y11748D01*
X25554Y11669D01*
X25422Y11594D01*
X25288Y11522D01*
X25152Y11453D01*
X25015Y11388D01*
X24876Y11326D01*
X24736Y11268D01*
X24594Y11213D01*
X24451Y11163D01*
X24306Y11115D01*
X24161Y11071D01*
X24014Y11032D01*
X23866Y10995D01*
X23718Y10963D01*
X23569Y10934D01*
X23419Y10909D01*
X23268Y10888D01*
X23117Y10871D01*
X22966Y10857D01*
X22814Y10848D01*
X22662Y10842D01*
X22510Y10840D01*
X10510Y10840D01*
X10358Y10842D01*
X10206Y10848D01*
X10054Y10857D01*
X9903Y10871D01*
X9752Y10888D01*
X9601Y10909D01*
X9451Y10934D01*
X9302Y10963D01*
X9154Y10995D01*
X9006Y11032D01*
X8859Y11071D01*
X8714Y11115D01*
X8569Y11163D01*
X8426Y11213D01*
X8284Y11268D01*
X8144Y11326D01*
X8005Y11388D01*
X7868Y11453D01*
X7732Y11522D01*
X7598Y11594D01*
X7466Y11669D01*
X7336Y11748D01*
X7208Y11830D01*
X7082Y11915D01*
X6959Y12004D01*
X6837Y12095D01*
X6718Y12190D01*
X6602Y12287D01*
X6488Y12388D01*
X6376Y12491D01*
X6267Y12597D01*
X6161Y12706D01*
X6058Y12818D01*
X5957Y12932D01*
X5860Y13048D01*
X5765Y13167D01*
X5674Y13289D01*
X5585Y13412D01*
X5500Y13538D01*
X5418Y13666D01*
X5339Y13796D01*
X5264Y13928D01*
X5192Y14062D01*
X5123Y14198D01*
X5058Y14335D01*
X4996Y14474D01*
X4938Y14614D01*
X4883Y14756D01*
X4833Y14899D01*
X4785Y15044D01*
X4741Y15189D01*
X4702Y15336D01*
X4665Y15484D01*
X4633Y15632D01*
X4604Y15781D01*
X4579Y15931D01*
X4558Y16082D01*
X4541Y16233D01*
X4527Y16384D01*
X4518Y16536D01*
X4512Y16688D01*
X4510Y16840D01*
X4512Y16992D01*
X4518Y17144D01*
X4527Y17296D01*
X4541Y17447D01*
X4558Y17598D01*
X4579Y17749D01*
X4604Y17899D01*
X4633Y18048D01*
X4665Y18196D01*
X4702Y18344D01*
X4741Y18491D01*
X4785Y18636D01*
X4833Y18781D01*
X4883Y18924D01*
X4938Y19066D01*
X4996Y19206D01*
X5058Y19345D01*
X5123Y19482D01*
X5192Y19618D01*
X5264Y19752D01*
X5339Y19884D01*
X5418Y20014D01*
X5500Y20142D01*
X5585Y20268D01*
X5674Y20391D01*
X5765Y20513D01*
X5860Y20632D01*
X5957Y20748D01*
X6058Y20862D01*
X6161Y20974D01*
X6267Y21083D01*
X6376Y21189D01*
X6488Y21292D01*
X6602Y21393D01*
X6718Y21490D01*
X6837Y21585D01*
X6959Y21676D01*
X7082Y21765D01*
X7208Y21850D01*
X7336Y21932D01*
X7466Y22011D01*
X7598Y22086D01*
X7732Y22158D01*
X7868Y22227D01*
X8005Y22292D01*
X8144Y22354D01*
X8284Y22412D01*
X8426Y22467D01*
X8569Y22517D01*
X8714Y22565D01*
X8859Y22609D01*
X9006Y22648D01*
X9154Y22685D01*
X9302Y22717D01*
X9451Y22746D01*
X9601Y22771D01*
X9752Y22792D01*
X9903Y22809D01*
X10054Y22823D01*
X10206Y22832D01*
X10358Y22838D01*
X10510Y22840D01*
X22510Y22840D01*
D21*
X16505Y16822D03*
D22*
X16510Y89840D03*
X16510Y16840D03*
D23*
X67010Y37340D02*
X79090Y37340D01*
X55010Y45340D02*
X42930Y45340D01*
X67010Y53340D02*
X79090Y53340D01*
X55010Y61340D02*
X42930Y61340D01*
X67010Y69340D02*
X79090Y69340D01*
D24*
X185810Y608330D03*
X202810Y608330D03*
X257175Y567300D03*
X257175Y550300D03*
D25*
X219837Y577850D02*
X205613Y577850D01*
X205613Y552450D02*
X219837Y552450D01*
D26*
X529200Y415925D03*
X512200Y415925D03*
D27*
X566300Y415925D03*
X551300Y415925D03*
D16*
X40540Y534000D02*
X27460Y534000D01*
D17*
X90000Y500000D03*
X20000Y500000D03*
D16*
X27460Y466000D02*
X40540Y466000D01*
D18*
X109460Y528500D02*
X120540Y528500D01*
X124000Y505540D02*
X124000Y494460D01*
X120540Y471500D02*
X109460Y471500D01*
D16*
X40540Y654000D02*
X27460Y654000D01*
D17*
X90000Y620000D03*
X20000Y620000D03*
D16*
X27460Y586000D02*
X40540Y586000D01*
D18*
X109460Y648500D02*
X120540Y648500D01*
X124000Y625540D02*
X124000Y614460D01*
X120540Y591500D02*
X109460Y591500D01*
D16*
X40540Y774000D02*
X27460Y774000D01*
D17*
X90000Y740000D03*
X20000Y740000D03*
D16*
X27460Y706000D02*
X40540Y706000D01*
D18*
X109460Y768500D02*
X120540Y768500D01*
X124000Y745540D02*
X124000Y734460D01*
X120540Y711500D02*
X109460Y711500D01*
D28*
X289525Y447675D03*
X237525Y447675D03*
X289525Y434975D03*
X289525Y460375D03*
X289525Y473075D03*
X237525Y434975D03*
X237525Y460375D03*
X237525Y473075D03*
D24*
X194700Y445135D03*
X211700Y445135D03*
D26*
X211700Y487680D03*
X194700Y487680D03*
X211700Y466725D03*
X194700Y466725D03*
D29*
X290850Y107950D03*
X290850Y82550D03*
X290850Y57150D03*
X290850Y31750D03*
X458450Y31750D03*
X458450Y57150D03*
X458450Y82550D03*
X458450Y107950D03*
D26*
X503800Y117475D03*
X486800Y117475D03*
X486800Y95250D03*
X503800Y95250D03*
D24*
X503800Y73025D03*
X486800Y73025D03*
D26*
X320675Y472685D03*
X320675Y455685D03*
X461645Y329175D03*
X461645Y312175D03*
D24*
X477275Y501650D03*
X494275Y501650D03*
D26*
X317500Y383150D03*
X317500Y366150D03*
D24*
X338700Y501650D03*
X321700Y501650D03*
D26*
X482600Y329175D03*
X482600Y312175D03*
X339725Y383150D03*
X339725Y366150D03*
D30*
X191305Y104550D03*
X191305Y111050D03*
X191305Y117550D03*
X191305Y124050D03*
X132545Y124050D03*
X132545Y117550D03*
X132545Y111050D03*
X132545Y104550D03*
D26*
X603250Y237100D03*
X603250Y220100D03*
D24*
X172475Y209550D03*
X189475Y209550D03*
D26*
X233925Y161290D03*
X216925Y161290D03*
D24*
X528075Y196850D03*
X545075Y196850D03*
D31*
X610870Y612575D02*
X621030Y612575D01*
X621030Y600075D02*
X610870Y600075D01*
X610870Y587575D02*
X621030Y587575D01*
X418750Y599920D02*
X418750Y610080D01*
X406250Y610080D02*
X406250Y599920D01*
X393750Y599920D02*
X393750Y610080D01*
X381250Y610080D02*
X381250Y599920D01*
X368750Y599920D02*
X368750Y610080D01*
X356250Y610080D02*
X356250Y599920D01*
X343750Y599920D02*
X343750Y610080D01*
X331250Y610080D02*
X331250Y599920D01*
X318750Y599920D02*
X318750Y610080D01*
X306250Y610080D02*
X306250Y599920D01*
X293750Y599920D02*
X293750Y610080D01*
X281250Y610080D02*
X281250Y599920D01*
D24*
X421640Y567300D03*
X421640Y550300D03*
X401320Y567300D03*
X401320Y550300D03*
X381000Y567300D03*
X381000Y550300D03*
X360680Y567300D03*
X360680Y550300D03*
X340360Y567300D03*
X340360Y550300D03*
X320040Y567300D03*
X320040Y550300D03*
X299720Y567300D03*
X299720Y550300D03*
X279400Y567300D03*
X279400Y550300D03*
D31*
X614045Y507500D02*
X624205Y507500D01*
X624205Y495000D02*
X614045Y495000D01*
X614045Y482500D02*
X624205Y482500D01*
X624205Y470000D02*
X614045Y470000D01*
X614045Y457500D02*
X624205Y457500D01*
X624205Y445000D02*
X614045Y445000D01*
D24*
X149225Y474100D03*
X149225Y491100D03*
D26*
X583175Y444500D03*
X566175Y444500D03*
X583175Y469900D03*
X566175Y469900D03*
X583175Y495300D03*
X566175Y495300D03*
D24*
X149225Y532375D03*
X149225Y515375D03*
X146050Y379975D03*
X146050Y362975D03*
X161925Y588400D03*
X161925Y605400D03*
D32*
X220550Y269900D03*
X220550Y288900D03*
X198550Y279400D03*
X144350Y552475D03*
X144350Y571475D03*
X122350Y561975D03*
X509700Y476225D03*
X509700Y457225D03*
X531700Y466725D03*
X220550Y308000D03*
X220550Y327000D03*
X198550Y317500D03*
X147525Y431825D03*
X147525Y450825D03*
X125525Y441325D03*
D26*
X252730Y78350D03*
X252730Y61350D03*
X545075Y174625D03*
X528075Y174625D03*
X580000Y174625D03*
X563000Y174625D03*
D33*
X365000Y704850D03*
X385000Y704850D03*
X345000Y704850D03*
X325000Y704850D03*
X305000Y704850D03*
X285000Y704850D03*
X265000Y704850D03*
X405000Y704850D03*
X425000Y704850D03*
X445000Y704850D03*
X465000Y704850D03*
D34*
X485000Y704850D03*
D31*
X614045Y355100D02*
X624205Y355100D01*
X624205Y342600D02*
X614045Y342600D01*
X614045Y330100D02*
X624205Y330100D01*
X624205Y317600D02*
X614045Y317600D01*
X614045Y305100D02*
X624205Y305100D01*
X624205Y292600D02*
X614045Y292600D01*
D26*
X557530Y357750D03*
X557530Y340750D03*
X577850Y357750D03*
X577850Y340750D03*
D35*
X620000Y50000D03*
X620000Y750000D03*
X200000Y750000D03*
X200000Y50000D03*
D24*
X129785Y65405D03*
X112785Y65405D03*
X129785Y85725D03*
X112785Y85725D03*
D36*
X336550Y336550D03*
X298450Y336550D03*
X374650Y336550D03*
X279400Y336550D03*
X355600Y336550D03*
X317500Y336550D03*
X260350Y336550D03*
X241300Y336550D03*
D26*
X189475Y181610D03*
X172475Y181610D03*
X233925Y181610D03*
X216925Y181610D03*
X233925Y140970D03*
X216925Y140970D03*
X233925Y120650D03*
X216925Y120650D03*
D28*
X523275Y247650D03*
X575275Y247650D03*
X523275Y260350D03*
X523275Y234950D03*
X523275Y222250D03*
X575275Y260350D03*
X575275Y234950D03*
X575275Y222250D03*
D26*
X623570Y237100D03*
X623570Y220100D03*
D24*
X282575Y366150D03*
X282575Y383150D03*
D32*
X109425Y104800D03*
X109425Y123800D03*
X87425Y114300D03*
D36*
X561975Y114300D03*
X111125Y44450D03*
X187325Y254000D03*
X555625Y692150D03*
X533400Y692150D03*
X577850Y692150D03*
D37*
X219710Y98425D03*
X234950Y98425D03*
X250190Y98425D03*
D38*
X495300Y460655D03*
X497205Y472440D03*
X555625Y527050D03*
X495300Y527050D03*
X231775Y351155D03*
X165100Y317500D03*
X165100Y279400D03*
X244475Y351155D03*
X149225Y184150D03*
X149225Y161925D03*
X368300Y314325D03*
X368300Y228600D03*
X339927Y421995D03*
X325755Y353695D03*
X263525Y454025D03*
X263525Y504825D03*
X136525Y184150D03*
X136525Y161925D03*
X133350Y47625D03*
X133350Y38100D03*
X133350Y28575D03*
X133350Y19050D03*
X241300Y28575D03*
X252730Y28575D03*
X263525Y28575D03*
X165100Y351790D03*
X174625Y351790D03*
X184150Y351790D03*
X454025Y457200D03*
X517525Y492125D03*
X458855Y557145D03*
X459740Y577850D03*
X180975Y625475D03*
X479425Y625475D03*
X638810Y241300D03*
X638810Y250825D03*
X161925Y361950D03*
X193675Y501015D03*
X476250Y342900D03*
X476250Y514350D03*
X301625Y384175D03*
X555625Y444500D03*
X555625Y469900D03*
X555625Y495300D03*
X590550Y552450D03*
X307975Y473075D03*
X149225Y501650D03*
X161925Y625475D03*
X352425Y501650D03*
X638810Y260350D03*
X266700Y98425D03*
X400050Y400050D03*
X352425Y376320D03*
X147955Y625475D03*
X147955Y686370D03*
X410250Y226100D03*
X479425Y178435D03*
X466090Y539115D03*
X310281Y538881D03*
X466224Y529590D03*
X301625Y528320D03*
X101600Y79375D03*
X206375Y129695D03*
X546100Y136525D03*
X504825Y136525D03*
X479425Y190500D03*
X417195Y234950D03*
X434975Y486255D03*
X467205Y384810D03*
X389890Y473710D03*
X339725Y469900D03*
X380365Y464622D03*
X362017Y384108D03*
X340360Y458470D03*
X370840Y454660D03*
X425383Y400117D03*
X378143Y209233D03*
X422275Y317500D03*
X254000Y171450D03*
M02*
