G04 EAGLE Gerber RS-274X export*
G75*
%MOMM*%
%FSLAX34Y34*%
%LPD*%
%INTop Copper*%
%IPPOS*%
%AMOC8*
5,1,8,0,0,1.08239X$1,22.5*%
G01*
%ADD10R,1.524000X0.508000*%
%ADD11C,5.842000*%
%ADD12R,1.398000X1.398000*%
%ADD13C,1.398000*%
%ADD14R,1.400000X0.300000*%
%ADD15R,0.736600X2.794000*%
%ADD16R,1.000000X1.100000*%
%ADD17R,0.800000X0.800000*%
%ADD18R,1.100000X1.000000*%
%ADD19C,0.240000*%
%ADD20R,0.304800X1.193800*%
%ADD21R,1.193800X0.304800*%
%ADD22P,1.732040X8X202.500000*%
%ADD23P,1.732040X8X22.500000*%
%ADD24P,2.749271X8X22.500000*%
%ADD25R,1.400000X1.000000*%
%ADD26C,1.422400*%
%ADD27R,2.200000X0.600000*%
%ADD28R,1.168400X1.600200*%
%ADD29C,0.304800*%
%ADD30C,0.756400*%
%ADD31C,1.016000*%
%ADD32C,0.254000*%
%ADD33C,0.609600*%
%ADD34C,1.270000*%
%ADD35C,0.200000*%
%ADD36C,0.812800*%
%ADD37C,0.508000*%


D10*
X271780Y368300D03*
D11*
X35000Y35000D03*
X1525000Y35000D03*
D12*
X50000Y340000D03*
D13*
X24600Y327300D03*
X50000Y314600D03*
X24600Y301900D03*
X50000Y289200D03*
X24600Y276500D03*
D11*
X35000Y435000D03*
X1525000Y435000D03*
D14*
X663800Y401160D03*
X663800Y396160D03*
X663800Y391160D03*
X663800Y386160D03*
X663800Y381160D03*
X707800Y381160D03*
X707800Y386160D03*
X707800Y391160D03*
X707800Y396160D03*
X707800Y401160D03*
D15*
X31240Y186700D03*
X31240Y146060D03*
X18540Y186700D03*
X18540Y146060D03*
X5840Y186700D03*
X5840Y146060D03*
X-6860Y186700D03*
X-6860Y146060D03*
X-19560Y186700D03*
X-19560Y146060D03*
D16*
X562220Y353060D03*
X545220Y353060D03*
D17*
X591700Y353060D03*
X576700Y353060D03*
D16*
X391160Y77860D03*
X391160Y94860D03*
X411480Y77860D03*
X411480Y94860D03*
X269240Y55000D03*
X269240Y72000D03*
D18*
X677300Y421640D03*
X694300Y421640D03*
D16*
X731520Y386960D03*
X731520Y369960D03*
D19*
X1055190Y278050D02*
X1055190Y261450D01*
X1052790Y261450D01*
X1052790Y278050D01*
X1055190Y278050D01*
X1055190Y263730D02*
X1052790Y263730D01*
X1052790Y266010D02*
X1055190Y266010D01*
X1055190Y268290D02*
X1052790Y268290D01*
X1052790Y270570D02*
X1055190Y270570D01*
X1055190Y272850D02*
X1052790Y272850D01*
X1052790Y275130D02*
X1055190Y275130D01*
X1055190Y277410D02*
X1052790Y277410D01*
X1061690Y278050D02*
X1061690Y261450D01*
X1059290Y261450D01*
X1059290Y278050D01*
X1061690Y278050D01*
X1061690Y263730D02*
X1059290Y263730D01*
X1059290Y266010D02*
X1061690Y266010D01*
X1061690Y268290D02*
X1059290Y268290D01*
X1059290Y270570D02*
X1061690Y270570D01*
X1061690Y272850D02*
X1059290Y272850D01*
X1059290Y275130D02*
X1061690Y275130D01*
X1061690Y277410D02*
X1059290Y277410D01*
X1068190Y278050D02*
X1068190Y261450D01*
X1065790Y261450D01*
X1065790Y278050D01*
X1068190Y278050D01*
X1068190Y263730D02*
X1065790Y263730D01*
X1065790Y266010D02*
X1068190Y266010D01*
X1068190Y268290D02*
X1065790Y268290D01*
X1065790Y270570D02*
X1068190Y270570D01*
X1068190Y272850D02*
X1065790Y272850D01*
X1065790Y275130D02*
X1068190Y275130D01*
X1068190Y277410D02*
X1065790Y277410D01*
X1074690Y278050D02*
X1074690Y261450D01*
X1072290Y261450D01*
X1072290Y278050D01*
X1074690Y278050D01*
X1074690Y263730D02*
X1072290Y263730D01*
X1072290Y266010D02*
X1074690Y266010D01*
X1074690Y268290D02*
X1072290Y268290D01*
X1072290Y270570D02*
X1074690Y270570D01*
X1074690Y272850D02*
X1072290Y272850D01*
X1072290Y275130D02*
X1074690Y275130D01*
X1074690Y277410D02*
X1072290Y277410D01*
X1081190Y278050D02*
X1081190Y261450D01*
X1078790Y261450D01*
X1078790Y278050D01*
X1081190Y278050D01*
X1081190Y263730D02*
X1078790Y263730D01*
X1078790Y266010D02*
X1081190Y266010D01*
X1081190Y268290D02*
X1078790Y268290D01*
X1078790Y270570D02*
X1081190Y270570D01*
X1081190Y272850D02*
X1078790Y272850D01*
X1078790Y275130D02*
X1081190Y275130D01*
X1081190Y277410D02*
X1078790Y277410D01*
X1087690Y278050D02*
X1087690Y261450D01*
X1085290Y261450D01*
X1085290Y278050D01*
X1087690Y278050D01*
X1087690Y263730D02*
X1085290Y263730D01*
X1085290Y266010D02*
X1087690Y266010D01*
X1087690Y268290D02*
X1085290Y268290D01*
X1085290Y270570D02*
X1087690Y270570D01*
X1087690Y272850D02*
X1085290Y272850D01*
X1085290Y275130D02*
X1087690Y275130D01*
X1087690Y277410D02*
X1085290Y277410D01*
X1094190Y278050D02*
X1094190Y261450D01*
X1091790Y261450D01*
X1091790Y278050D01*
X1094190Y278050D01*
X1094190Y263730D02*
X1091790Y263730D01*
X1091790Y266010D02*
X1094190Y266010D01*
X1094190Y268290D02*
X1091790Y268290D01*
X1091790Y270570D02*
X1094190Y270570D01*
X1094190Y272850D02*
X1091790Y272850D01*
X1091790Y275130D02*
X1094190Y275130D01*
X1094190Y277410D02*
X1091790Y277410D01*
X1100690Y278050D02*
X1100690Y261450D01*
X1098290Y261450D01*
X1098290Y278050D01*
X1100690Y278050D01*
X1100690Y263730D02*
X1098290Y263730D01*
X1098290Y266010D02*
X1100690Y266010D01*
X1100690Y268290D02*
X1098290Y268290D01*
X1098290Y270570D02*
X1100690Y270570D01*
X1100690Y272850D02*
X1098290Y272850D01*
X1098290Y275130D02*
X1100690Y275130D01*
X1100690Y277410D02*
X1098290Y277410D01*
X1107190Y278050D02*
X1107190Y261450D01*
X1104790Y261450D01*
X1104790Y278050D01*
X1107190Y278050D01*
X1107190Y263730D02*
X1104790Y263730D01*
X1104790Y266010D02*
X1107190Y266010D01*
X1107190Y268290D02*
X1104790Y268290D01*
X1104790Y270570D02*
X1107190Y270570D01*
X1107190Y272850D02*
X1104790Y272850D01*
X1104790Y275130D02*
X1107190Y275130D01*
X1107190Y277410D02*
X1104790Y277410D01*
X1113690Y278050D02*
X1113690Y261450D01*
X1111290Y261450D01*
X1111290Y278050D01*
X1113690Y278050D01*
X1113690Y263730D02*
X1111290Y263730D01*
X1111290Y266010D02*
X1113690Y266010D01*
X1113690Y268290D02*
X1111290Y268290D01*
X1111290Y270570D02*
X1113690Y270570D01*
X1113690Y272850D02*
X1111290Y272850D01*
X1111290Y275130D02*
X1113690Y275130D01*
X1113690Y277410D02*
X1111290Y277410D01*
X1120190Y278050D02*
X1120190Y261450D01*
X1117790Y261450D01*
X1117790Y278050D01*
X1120190Y278050D01*
X1120190Y263730D02*
X1117790Y263730D01*
X1117790Y266010D02*
X1120190Y266010D01*
X1120190Y268290D02*
X1117790Y268290D01*
X1117790Y270570D02*
X1120190Y270570D01*
X1120190Y272850D02*
X1117790Y272850D01*
X1117790Y275130D02*
X1120190Y275130D01*
X1120190Y277410D02*
X1117790Y277410D01*
X1126690Y278050D02*
X1126690Y261450D01*
X1124290Y261450D01*
X1124290Y278050D01*
X1126690Y278050D01*
X1126690Y263730D02*
X1124290Y263730D01*
X1124290Y266010D02*
X1126690Y266010D01*
X1126690Y268290D02*
X1124290Y268290D01*
X1124290Y270570D02*
X1126690Y270570D01*
X1126690Y272850D02*
X1124290Y272850D01*
X1124290Y275130D02*
X1126690Y275130D01*
X1126690Y277410D02*
X1124290Y277410D01*
X1126690Y331550D02*
X1126690Y348150D01*
X1126690Y331550D02*
X1124290Y331550D01*
X1124290Y348150D01*
X1126690Y348150D01*
X1126690Y333830D02*
X1124290Y333830D01*
X1124290Y336110D02*
X1126690Y336110D01*
X1126690Y338390D02*
X1124290Y338390D01*
X1124290Y340670D02*
X1126690Y340670D01*
X1126690Y342950D02*
X1124290Y342950D01*
X1124290Y345230D02*
X1126690Y345230D01*
X1126690Y347510D02*
X1124290Y347510D01*
X1120190Y348150D02*
X1120190Y331550D01*
X1117790Y331550D01*
X1117790Y348150D01*
X1120190Y348150D01*
X1120190Y333830D02*
X1117790Y333830D01*
X1117790Y336110D02*
X1120190Y336110D01*
X1120190Y338390D02*
X1117790Y338390D01*
X1117790Y340670D02*
X1120190Y340670D01*
X1120190Y342950D02*
X1117790Y342950D01*
X1117790Y345230D02*
X1120190Y345230D01*
X1120190Y347510D02*
X1117790Y347510D01*
X1113690Y348150D02*
X1113690Y331550D01*
X1111290Y331550D01*
X1111290Y348150D01*
X1113690Y348150D01*
X1113690Y333830D02*
X1111290Y333830D01*
X1111290Y336110D02*
X1113690Y336110D01*
X1113690Y338390D02*
X1111290Y338390D01*
X1111290Y340670D02*
X1113690Y340670D01*
X1113690Y342950D02*
X1111290Y342950D01*
X1111290Y345230D02*
X1113690Y345230D01*
X1113690Y347510D02*
X1111290Y347510D01*
X1107190Y348150D02*
X1107190Y331550D01*
X1104790Y331550D01*
X1104790Y348150D01*
X1107190Y348150D01*
X1107190Y333830D02*
X1104790Y333830D01*
X1104790Y336110D02*
X1107190Y336110D01*
X1107190Y338390D02*
X1104790Y338390D01*
X1104790Y340670D02*
X1107190Y340670D01*
X1107190Y342950D02*
X1104790Y342950D01*
X1104790Y345230D02*
X1107190Y345230D01*
X1107190Y347510D02*
X1104790Y347510D01*
X1100690Y348150D02*
X1100690Y331550D01*
X1098290Y331550D01*
X1098290Y348150D01*
X1100690Y348150D01*
X1100690Y333830D02*
X1098290Y333830D01*
X1098290Y336110D02*
X1100690Y336110D01*
X1100690Y338390D02*
X1098290Y338390D01*
X1098290Y340670D02*
X1100690Y340670D01*
X1100690Y342950D02*
X1098290Y342950D01*
X1098290Y345230D02*
X1100690Y345230D01*
X1100690Y347510D02*
X1098290Y347510D01*
X1094190Y348150D02*
X1094190Y331550D01*
X1091790Y331550D01*
X1091790Y348150D01*
X1094190Y348150D01*
X1094190Y333830D02*
X1091790Y333830D01*
X1091790Y336110D02*
X1094190Y336110D01*
X1094190Y338390D02*
X1091790Y338390D01*
X1091790Y340670D02*
X1094190Y340670D01*
X1094190Y342950D02*
X1091790Y342950D01*
X1091790Y345230D02*
X1094190Y345230D01*
X1094190Y347510D02*
X1091790Y347510D01*
X1087690Y348150D02*
X1087690Y331550D01*
X1085290Y331550D01*
X1085290Y348150D01*
X1087690Y348150D01*
X1087690Y333830D02*
X1085290Y333830D01*
X1085290Y336110D02*
X1087690Y336110D01*
X1087690Y338390D02*
X1085290Y338390D01*
X1085290Y340670D02*
X1087690Y340670D01*
X1087690Y342950D02*
X1085290Y342950D01*
X1085290Y345230D02*
X1087690Y345230D01*
X1087690Y347510D02*
X1085290Y347510D01*
X1081190Y348150D02*
X1081190Y331550D01*
X1078790Y331550D01*
X1078790Y348150D01*
X1081190Y348150D01*
X1081190Y333830D02*
X1078790Y333830D01*
X1078790Y336110D02*
X1081190Y336110D01*
X1081190Y338390D02*
X1078790Y338390D01*
X1078790Y340670D02*
X1081190Y340670D01*
X1081190Y342950D02*
X1078790Y342950D01*
X1078790Y345230D02*
X1081190Y345230D01*
X1081190Y347510D02*
X1078790Y347510D01*
X1074690Y348150D02*
X1074690Y331550D01*
X1072290Y331550D01*
X1072290Y348150D01*
X1074690Y348150D01*
X1074690Y333830D02*
X1072290Y333830D01*
X1072290Y336110D02*
X1074690Y336110D01*
X1074690Y338390D02*
X1072290Y338390D01*
X1072290Y340670D02*
X1074690Y340670D01*
X1074690Y342950D02*
X1072290Y342950D01*
X1072290Y345230D02*
X1074690Y345230D01*
X1074690Y347510D02*
X1072290Y347510D01*
X1068190Y348150D02*
X1068190Y331550D01*
X1065790Y331550D01*
X1065790Y348150D01*
X1068190Y348150D01*
X1068190Y333830D02*
X1065790Y333830D01*
X1065790Y336110D02*
X1068190Y336110D01*
X1068190Y338390D02*
X1065790Y338390D01*
X1065790Y340670D02*
X1068190Y340670D01*
X1068190Y342950D02*
X1065790Y342950D01*
X1065790Y345230D02*
X1068190Y345230D01*
X1068190Y347510D02*
X1065790Y347510D01*
X1061690Y348150D02*
X1061690Y331550D01*
X1059290Y331550D01*
X1059290Y348150D01*
X1061690Y348150D01*
X1061690Y333830D02*
X1059290Y333830D01*
X1059290Y336110D02*
X1061690Y336110D01*
X1061690Y338390D02*
X1059290Y338390D01*
X1059290Y340670D02*
X1061690Y340670D01*
X1061690Y342950D02*
X1059290Y342950D01*
X1059290Y345230D02*
X1061690Y345230D01*
X1061690Y347510D02*
X1059290Y347510D01*
X1055190Y348150D02*
X1055190Y331550D01*
X1052790Y331550D01*
X1052790Y348150D01*
X1055190Y348150D01*
X1055190Y333830D02*
X1052790Y333830D01*
X1052790Y336110D02*
X1055190Y336110D01*
X1055190Y338390D02*
X1052790Y338390D01*
X1052790Y340670D02*
X1055190Y340670D01*
X1055190Y342950D02*
X1052790Y342950D01*
X1052790Y345230D02*
X1055190Y345230D01*
X1055190Y347510D02*
X1052790Y347510D01*
D20*
X427990Y334140D03*
X422990Y334140D03*
X417990Y334140D03*
X412990Y334140D03*
X407990Y334140D03*
X402990Y334140D03*
X397990Y334140D03*
X392990Y334140D03*
X387990Y334140D03*
X382990Y334140D03*
X377990Y334140D03*
X372990Y334140D03*
X367990Y334140D03*
X362990Y334140D03*
X357990Y334140D03*
X352990Y334140D03*
D21*
X332990Y314140D03*
X332990Y309140D03*
X332990Y304140D03*
X332990Y299140D03*
X332990Y294140D03*
X332990Y289140D03*
X332990Y284140D03*
X332990Y279140D03*
X332990Y274140D03*
X332990Y269140D03*
X332990Y264140D03*
X332990Y259140D03*
X332990Y254140D03*
X332990Y249140D03*
X332990Y244140D03*
X332990Y239140D03*
D20*
X352990Y219140D03*
X357990Y219140D03*
X362990Y219140D03*
X367990Y219140D03*
X372990Y219140D03*
X377990Y219140D03*
X382990Y219140D03*
X387990Y219140D03*
X392990Y219140D03*
X397990Y219140D03*
X402990Y219140D03*
X407990Y219140D03*
X412990Y219140D03*
X417990Y219140D03*
X422990Y219140D03*
X427990Y219140D03*
D21*
X447990Y239140D03*
X447990Y244140D03*
X447990Y249140D03*
X447990Y254140D03*
X447990Y259140D03*
X447990Y264140D03*
X447990Y269140D03*
X447990Y274140D03*
X447990Y279140D03*
X447990Y284140D03*
X447990Y289140D03*
X447990Y294140D03*
X447990Y299140D03*
X447990Y304140D03*
X447990Y309140D03*
X447990Y314140D03*
D16*
X1112520Y242180D03*
X1112520Y225180D03*
D18*
X1158240Y359020D03*
X1158240Y342020D03*
X1158240Y242180D03*
X1158240Y225180D03*
X1135380Y242180D03*
X1135380Y225180D03*
D22*
X254000Y228600D03*
X241300Y254000D03*
X228600Y228600D03*
X215900Y254000D03*
X203200Y228600D03*
X190500Y254000D03*
X177800Y228600D03*
X165100Y254000D03*
X152400Y228600D03*
X139700Y254000D03*
X127000Y228600D03*
X114300Y254000D03*
X254000Y393700D03*
X241300Y419100D03*
X228600Y393700D03*
X215900Y419100D03*
X203200Y393700D03*
X190500Y419100D03*
X177800Y393700D03*
X165100Y419100D03*
X152400Y393700D03*
X139700Y419100D03*
X127000Y393700D03*
X114300Y419100D03*
D23*
X1270000Y254000D03*
X1282700Y228600D03*
X1295400Y254000D03*
X1308100Y228600D03*
X1320800Y254000D03*
X1333500Y228600D03*
X1346200Y254000D03*
X1358900Y228600D03*
X1371600Y254000D03*
X1384300Y228600D03*
X1397000Y254000D03*
X1409700Y228600D03*
X1270000Y419100D03*
X1282700Y393700D03*
X1295400Y419100D03*
X1308100Y393700D03*
X1320800Y419100D03*
X1333500Y393700D03*
X1346200Y419100D03*
X1358900Y393700D03*
X1371600Y419100D03*
X1384300Y393700D03*
X1397000Y419100D03*
X1409700Y393700D03*
X546100Y254000D03*
X558800Y228600D03*
X571500Y254000D03*
X584200Y228600D03*
X596900Y254000D03*
X609600Y228600D03*
X622300Y254000D03*
X635000Y228600D03*
X647700Y254000D03*
X660400Y228600D03*
X673100Y254000D03*
X685800Y228600D03*
X698500Y254000D03*
X711200Y228600D03*
X368300Y419100D03*
X381000Y393700D03*
X393700Y419100D03*
X406400Y393700D03*
X419100Y419100D03*
X431800Y393700D03*
X444500Y419100D03*
X457200Y393700D03*
X469900Y419100D03*
X482600Y393700D03*
X495300Y419100D03*
X508000Y393700D03*
X520700Y419100D03*
X533400Y393700D03*
D22*
X952500Y228600D03*
X939800Y254000D03*
X927100Y228600D03*
X914400Y254000D03*
X901700Y228600D03*
X889000Y254000D03*
X876300Y228600D03*
X863600Y254000D03*
X850900Y228600D03*
X838200Y254000D03*
X825500Y228600D03*
X812800Y254000D03*
X800100Y228600D03*
X787400Y254000D03*
X1143000Y393700D03*
X1130300Y419100D03*
X1117600Y393700D03*
X1104900Y419100D03*
X1092200Y393700D03*
X1079500Y419100D03*
X1066800Y393700D03*
X1054100Y419100D03*
X1041400Y393700D03*
X1028700Y419100D03*
X1016000Y393700D03*
X1003300Y419100D03*
X990600Y393700D03*
X977900Y419100D03*
D16*
X276860Y237100D03*
X276860Y220100D03*
X297180Y220100D03*
X297180Y237100D03*
X292100Y293760D03*
X292100Y310760D03*
D18*
X422520Y193040D03*
X405520Y193040D03*
D16*
X472440Y334890D03*
X472440Y317890D03*
D18*
X438540Y358140D03*
X455540Y358140D03*
D16*
X322580Y359800D03*
X322580Y376800D03*
X271780Y293760D03*
X271780Y310760D03*
X492760Y334890D03*
X492760Y317890D03*
X347980Y359800D03*
X347980Y376800D03*
X703190Y347980D03*
X686190Y347980D03*
D24*
X175260Y55880D03*
X213360Y55880D03*
D23*
X165100Y149860D03*
X142240Y149860D03*
X1394460Y147320D03*
X1419860Y147320D03*
D25*
X143080Y333400D03*
X143080Y352400D03*
X121080Y342900D03*
X143080Y287680D03*
X143080Y306680D03*
X121080Y297180D03*
D26*
X772668Y419100D02*
X786892Y419100D01*
X786892Y393700D02*
X772668Y393700D01*
D16*
X509660Y353060D03*
X526660Y353060D03*
D27*
X311820Y80010D03*
X363820Y80010D03*
X311820Y92710D03*
X311820Y67310D03*
X311820Y54610D03*
X363820Y92710D03*
X363820Y67310D03*
X363820Y54610D03*
D18*
X205740Y293760D03*
X205740Y310760D03*
X185420Y310760D03*
X185420Y293760D03*
X175260Y347100D03*
X175260Y364100D03*
D28*
X264160Y368300D03*
X279400Y368300D03*
X294640Y368300D03*
D23*
X434340Y48260D03*
X454660Y48260D03*
X81280Y363220D03*
X81280Y383540D03*
D29*
X18540Y186700D02*
X5840Y186700D01*
X5840Y203960D01*
X15240Y213360D02*
X22860Y213360D01*
X15240Y213360D02*
X5840Y203960D01*
D30*
X22860Y213360D03*
D31*
X24600Y276500D02*
X27140Y276500D01*
X36940Y266700D01*
X38100Y266700D01*
D30*
X36940Y266700D03*
D31*
X48260Y266700D01*
D30*
X48260Y266700D03*
D31*
X58420Y266700D01*
D30*
X58420Y266700D03*
D32*
X1053990Y269750D02*
X1053990Y251350D01*
X1049020Y246380D01*
D30*
X1049020Y246380D03*
D29*
X708660Y380300D02*
X707800Y381160D01*
X708660Y380300D02*
X708660Y368300D01*
D30*
X708660Y368300D03*
D29*
X710320Y369960D02*
X731520Y369960D01*
X710320Y369960D02*
X708660Y368300D01*
X1071880Y184540D02*
X1112520Y225180D01*
X1071880Y184540D02*
X1071880Y182880D01*
D30*
X1071880Y182880D03*
D29*
X372990Y334140D02*
X372990Y353450D01*
X349640Y376800D02*
X347980Y376800D01*
X349640Y376800D02*
X372990Y353450D01*
X347980Y376800D02*
X322580Y376800D01*
X322580Y388620D01*
D30*
X322580Y388620D03*
D29*
X332990Y244140D02*
X332690Y243840D01*
X276860Y220100D02*
X276860Y208280D01*
D30*
X276860Y208280D03*
D29*
X405520Y193040D02*
X422990Y210510D01*
X422990Y219140D01*
X405520Y193040D02*
X405520Y183270D01*
X400050Y177800D01*
D30*
X400050Y177800D03*
D29*
X455540Y351400D02*
X455540Y358140D01*
X455540Y351400D02*
X449580Y345440D01*
D30*
X449580Y345440D03*
D29*
X494910Y320040D02*
X503066Y320040D01*
X494910Y320040D02*
X492760Y317890D01*
D30*
X503066Y320040D03*
D29*
X332990Y309140D02*
X293720Y309140D01*
X292100Y310760D01*
X291220Y309880D01*
X270900Y309880D01*
D30*
X256540Y309880D03*
D29*
X270900Y309880D01*
X591700Y353060D02*
X604520Y353060D01*
D30*
X604520Y353060D03*
D33*
X694300Y421640D02*
X711200Y421640D01*
D30*
X711200Y421640D03*
D29*
X708660Y353450D02*
X703190Y347980D01*
X708660Y353450D02*
X708660Y368300D01*
D34*
X231140Y73660D02*
X213360Y55880D01*
X231140Y73660D02*
X250190Y92710D01*
D35*
X231140Y73660D02*
X231927Y72873D01*
D29*
X411480Y94860D02*
X411480Y97790D01*
X297180Y237100D02*
X303920Y243840D01*
X332690Y243840D01*
X276860Y220100D02*
X274320Y220100D01*
X265820Y220100D01*
X261620Y215900D01*
X261620Y208280D01*
D30*
X261620Y208280D03*
D29*
X286140Y226060D02*
X297180Y237100D01*
X286140Y226060D02*
X276860Y226060D01*
X274320Y223520D01*
X274320Y220100D01*
X270900Y309880D02*
X271780Y310760D01*
X1125490Y339850D02*
X1139950Y339850D01*
X1140460Y340360D01*
D30*
X1140460Y340360D03*
D29*
X121080Y342900D02*
X106680Y342900D01*
D30*
X106680Y342900D03*
D29*
X106680Y297180D02*
X121080Y297180D01*
D30*
X106680Y297180D03*
D29*
X464446Y317890D02*
X472440Y317890D01*
X492760Y317890D01*
X455696Y309140D02*
X447990Y309140D01*
X455696Y309140D02*
X464446Y317890D01*
X509660Y341240D02*
X509660Y353060D01*
X509660Y341240D02*
X510540Y340360D01*
D30*
X510540Y340360D03*
D34*
X269240Y92710D02*
X250190Y92710D01*
X269240Y92710D02*
X311820Y92710D01*
D36*
X391160Y94860D02*
X401320Y94860D01*
X411480Y94860D01*
X401320Y94860D02*
X401320Y109220D01*
D30*
X401320Y109220D03*
X401320Y119380D03*
D36*
X401320Y109220D01*
X269240Y92710D02*
X269240Y72000D01*
D29*
X219320Y310760D02*
X205740Y310760D01*
X219320Y310760D02*
X219710Y311150D01*
D30*
X219710Y311150D03*
D29*
X429360Y269140D02*
X447990Y269140D01*
X429360Y269140D02*
X429260Y269240D01*
D30*
X429260Y269240D03*
X266450Y127250D03*
D29*
X5840Y135380D02*
X5840Y146060D01*
X5840Y135380D02*
X5080Y134620D01*
X22860Y116840D01*
X256039Y116840D01*
X266450Y127250D01*
X439120Y244140D02*
X447990Y244140D01*
X439120Y244140D02*
X429260Y254000D01*
D30*
X429260Y254000D03*
X266700Y157480D03*
D29*
X264160Y157480D01*
X258562Y163078D01*
X-6860Y155700D02*
X-6860Y146060D01*
X518Y163078D02*
X258562Y163078D01*
X518Y163078D02*
X-6860Y155700D01*
X397990Y297660D02*
X397990Y334140D01*
X397990Y297660D02*
X377190Y276860D01*
D30*
X377190Y276860D03*
X266700Y167640D03*
D29*
X265430Y168910D01*
X-8890Y168910D01*
X-20320Y157480D01*
X-20320Y154940D01*
X-19560Y154180D02*
X-19560Y146060D01*
X-19560Y154180D02*
X-20320Y154940D01*
X1112490Y242210D02*
X1112490Y269750D01*
X1112490Y242210D02*
X1112520Y242180D01*
D37*
X1135380Y225180D02*
X1158240Y225180D01*
X1114180Y242180D02*
X1112520Y242180D01*
D29*
X44440Y186700D02*
X31240Y186700D01*
X56670Y174470D02*
X280190Y174470D01*
X56670Y174470D02*
X44440Y186700D01*
D30*
X1188720Y342900D03*
D37*
X1114180Y242180D02*
X1122680Y233680D01*
X1122680Y226060D02*
X1122680Y220980D01*
X1122680Y226060D02*
X1122680Y233680D01*
X1122680Y220980D02*
X1122826Y220980D01*
D30*
X1122826Y220980D03*
D37*
X1123560Y225180D02*
X1135380Y225180D01*
X1123560Y225180D02*
X1122680Y226060D01*
D32*
X1158240Y342020D02*
X1187840Y342020D01*
X1188720Y342900D01*
D29*
X427990Y198510D02*
X422520Y193040D01*
X427990Y198510D02*
X427990Y219140D01*
X451690Y314140D02*
X472440Y334890D01*
X451690Y314140D02*
X447990Y314140D01*
X472440Y334890D02*
X492760Y334890D01*
X427990Y334140D02*
X427990Y355210D01*
X430920Y358140D02*
X438540Y358140D01*
X430920Y358140D02*
X427990Y355210D01*
X438540Y358140D02*
X438540Y347100D01*
X436880Y345440D01*
D30*
X436880Y345440D03*
X485140Y345440D03*
D29*
X422520Y193040D02*
X422520Y186102D01*
X414218Y177800D01*
D30*
X414218Y177800D03*
D29*
X297180Y220100D02*
X294640Y217560D01*
X294640Y208280D01*
D30*
X294640Y208280D03*
D29*
X313910Y304140D02*
X332990Y304140D01*
D30*
X256540Y293370D03*
X660400Y421640D03*
X660400Y363220D03*
D33*
X495300Y363220D01*
X485140Y353060D01*
X485140Y345440D01*
D29*
X489830Y345440D01*
X492760Y342510D01*
X492760Y334890D01*
X663800Y401160D02*
X672940Y401160D01*
X677300Y405520D01*
X337820Y116840D02*
X280190Y174470D01*
D30*
X449580Y73660D03*
X436880Y73660D03*
X424180Y73660D03*
D29*
X424180Y72780D01*
X421640Y72780D01*
X291710Y293370D02*
X292100Y293760D01*
X303140Y293370D02*
X313910Y304140D01*
X303140Y293370D02*
X291710Y293370D01*
X271780Y293370D02*
X256540Y293370D01*
X271780Y293370D02*
X291710Y293370D01*
X316220Y239140D02*
X297180Y220100D01*
X271780Y293370D02*
X271780Y293760D01*
X316220Y239140D02*
X332990Y239140D01*
D33*
X660400Y421640D02*
X677300Y421640D01*
D29*
X677300Y405520D01*
X677300Y421640D02*
X679490Y421640D01*
X687538Y429688D01*
X772160Y419100D02*
X779780Y419100D01*
X772160Y419100D02*
X761572Y429688D01*
X687538Y429688D01*
D34*
X424180Y73660D02*
X411480Y73660D01*
X391160Y73660D01*
X363220Y73660D01*
X337820Y73660D02*
X309880Y73660D01*
X337820Y73660D02*
X363220Y73660D01*
X424180Y73660D02*
X436880Y73660D01*
X449580Y73660D01*
D29*
X363820Y74260D02*
X363820Y80010D01*
X363820Y74260D02*
X363220Y73660D01*
X363220Y67910D02*
X363820Y67310D01*
X363220Y67910D02*
X363220Y73660D01*
X311820Y75600D02*
X311820Y80010D01*
X311820Y75600D02*
X309880Y73660D01*
X309880Y69250D02*
X311820Y67310D01*
X309880Y69250D02*
X309880Y73660D01*
X411480Y73660D02*
X411480Y77860D01*
X391160Y77860D02*
X391160Y73660D01*
X337820Y73660D02*
X337820Y116840D01*
X185420Y293760D02*
X193920Y302260D01*
X247650Y302260D02*
X256540Y293370D01*
X247650Y302260D02*
X193920Y302260D01*
D30*
X193040Y342900D03*
D29*
X193040Y347980D01*
X176920Y364100D01*
X175260Y364100D01*
D37*
X294640Y368300D02*
X309880Y368300D01*
D30*
X309880Y368300D03*
D33*
X434340Y71120D02*
X434340Y48260D01*
X434340Y71120D02*
X436880Y73660D01*
D29*
X545220Y351026D02*
X545220Y353060D01*
X545220Y351026D02*
X500164Y305970D01*
D30*
X467360Y305970D03*
D29*
X500164Y305970D01*
D30*
X320040Y266700D03*
D29*
X322520Y259140D02*
X332990Y259140D01*
X322520Y259140D02*
X320040Y261620D01*
X320040Y266700D01*
X526660Y353060D02*
X545220Y353060D01*
X345100Y284140D02*
X332990Y284140D01*
X345100Y284140D02*
X356870Y295910D01*
X356870Y317500D01*
X339090Y335280D01*
X65240Y327300D02*
X24600Y327300D01*
X90340Y352400D02*
X143080Y352400D01*
X90340Y352400D02*
X65240Y327300D01*
X143080Y352400D02*
X145440Y352400D01*
X162560Y335280D01*
X175260Y335280D01*
X339090Y335280D01*
X175260Y335280D02*
X175260Y347100D01*
X350520Y316230D02*
X350520Y297327D01*
X350520Y316230D02*
X336550Y330200D01*
X75760Y330200D02*
X60160Y314600D01*
X50000Y314600D01*
X332990Y289140D02*
X342334Y289140D01*
X350520Y297327D01*
X142240Y330200D02*
X75760Y330200D01*
X142240Y330200D02*
X143080Y331040D01*
X143080Y333400D01*
X142240Y330200D02*
X336550Y330200D01*
X332990Y294140D02*
X340868Y294140D01*
X344674Y297946D02*
X344674Y314456D01*
X334010Y325120D01*
X58060Y301900D02*
X24600Y301900D01*
X340868Y294140D02*
X344674Y297946D01*
X63500Y307340D02*
X58060Y301900D01*
X63500Y307340D02*
X142420Y307340D01*
X143080Y306680D01*
X161520Y325120D02*
X334010Y325120D01*
X161520Y325120D02*
X143080Y306680D01*
X181340Y306680D02*
X185420Y310760D01*
X181340Y306680D02*
X143080Y306680D01*
X322000Y299140D02*
X332990Y299140D01*
X322000Y299140D02*
X307340Y284480D01*
X205740Y284480D01*
X144780Y284480D01*
X54720Y284480D01*
X50000Y289200D01*
X143080Y287680D02*
X144780Y285980D01*
X144780Y284480D01*
X205740Y284480D02*
X205740Y293760D01*
X562220Y353060D02*
X576700Y353060D01*
D34*
X200660Y30480D02*
X175260Y55880D01*
X226940Y30480D02*
X251460Y55000D01*
X269240Y55000D01*
X226940Y30480D02*
X200660Y30480D01*
X269630Y54610D02*
X311820Y54610D01*
X269630Y54610D02*
X269240Y55000D01*
D33*
X50000Y340000D02*
X73220Y363220D01*
X81280Y363220D01*
D29*
X165100Y419100D02*
X165100Y434340D01*
X170180Y439420D01*
X617220Y439420D01*
X622300Y434340D01*
X622300Y386080D02*
X627380Y381000D01*
X663640Y381000D01*
X663800Y381160D01*
X622300Y386080D02*
X622300Y434340D01*
X127000Y439420D02*
X127000Y393700D01*
X127000Y439420D02*
X132080Y444500D01*
X619760Y444500D01*
X627380Y436880D01*
X627380Y391160D02*
X632460Y386080D01*
X663720Y386080D01*
X663800Y386160D01*
X627380Y391160D02*
X627380Y436880D01*
X1358900Y424180D02*
X1358900Y393700D01*
X1358900Y424180D02*
X1343660Y439420D01*
X642620Y439420D02*
X637540Y434340D01*
X637540Y401320D01*
X642700Y396160D02*
X663800Y396160D01*
X642620Y439420D02*
X1343660Y439420D01*
X642700Y396160D02*
X637540Y401320D01*
X1371600Y444500D02*
X1397000Y419100D01*
X640080Y444500D02*
X632460Y436880D01*
X632460Y396240D01*
X637540Y391160D01*
X663800Y391160D01*
X640080Y444500D02*
X1371600Y444500D01*
X383440Y269140D02*
X332990Y269140D01*
X490220Y375920D02*
X673100Y375920D01*
X678180Y381000D01*
X678180Y393700D01*
X685640Y401160D01*
X707800Y401160D01*
X490220Y375920D02*
X383440Y269140D01*
X386060Y264140D02*
X332990Y264140D01*
X492760Y370840D02*
X678180Y370840D01*
X684784Y377444D01*
X684784Y390144D02*
X690880Y396240D01*
X707720Y396240D01*
D32*
X707800Y396160D01*
D29*
X684784Y390144D02*
X684784Y377444D01*
X492760Y370840D02*
X386060Y264140D01*
X447990Y299140D02*
X499800Y299140D01*
X543560Y342900D01*
X660400Y342900D01*
X691388Y373888D01*
X691388Y386588D02*
X695960Y391160D01*
X707800Y391160D01*
X691388Y386588D02*
X691388Y373888D01*
D34*
X84428Y422248D02*
X84428Y452728D01*
D30*
X84428Y452728D03*
D34*
X84428Y422248D02*
X-5080Y332740D01*
X-5080Y274320D01*
X17780Y251460D01*
X91440Y251460D01*
X111760Y251460D01*
X114300Y254000D01*
X91440Y251460D02*
X91440Y228600D01*
X111760Y208280D01*
X134620Y208280D01*
X152400Y226060D01*
X152400Y228600D01*
D33*
X800100Y241300D02*
X812800Y254000D01*
X698500Y241300D02*
X685800Y228600D01*
X746760Y241300D02*
X800100Y241300D01*
X746760Y241300D02*
X698500Y241300D01*
X746760Y241300D02*
X746760Y289560D01*
D30*
X746760Y289560D03*
D29*
X731520Y386160D02*
X707800Y386160D01*
X731520Y386160D02*
X746680Y386160D01*
X746760Y386080D01*
D30*
X746760Y386080D03*
X233680Y365760D03*
D29*
X731520Y386160D02*
X731520Y386960D01*
D37*
X261620Y365760D02*
X233680Y365760D01*
D29*
X261620Y365760D02*
X264160Y368300D01*
X362990Y345670D02*
X362990Y334140D01*
X362990Y345670D02*
X358140Y350520D01*
X223520Y350520D01*
X215900Y358140D01*
X215900Y419100D01*
X1427480Y414628D02*
X1427480Y332740D01*
X1427480Y414628D02*
X1387448Y454660D01*
X1397000Y302260D02*
X1397000Y254000D01*
X1397000Y302260D02*
X1427480Y332740D01*
X106680Y454660D02*
X96520Y444500D01*
X96520Y360680D01*
D30*
X96520Y360680D03*
X167640Y317500D03*
D29*
X106680Y454660D02*
X1387448Y454660D01*
X332990Y314140D02*
X328480Y314140D01*
X322072Y320548D01*
X170688Y320548D01*
X167640Y317500D01*
X256540Y396240D02*
X345440Y396240D01*
X256540Y396240D02*
X254000Y393700D01*
X377990Y363690D02*
X377990Y334140D01*
X377990Y363690D02*
X345440Y396240D01*
X241300Y406400D02*
X228600Y393700D01*
X241300Y406400D02*
X342900Y406400D01*
X382990Y366310D01*
X382990Y334140D01*
X332990Y274140D02*
X185240Y274140D01*
X165100Y254000D01*
X131820Y279140D02*
X332990Y279140D01*
X131820Y279140D02*
X127000Y274320D01*
X127000Y228600D01*
X1358900Y228600D02*
X1358900Y271780D01*
X1422400Y335280D01*
X1422400Y413104D02*
X1385924Y449580D01*
X1422400Y413104D02*
X1422400Y335280D01*
X109220Y449580D02*
X101600Y441960D01*
X101600Y386080D01*
X109220Y449580D02*
X1385924Y449580D01*
X352990Y337890D02*
X350520Y340360D01*
X352990Y337890D02*
X352990Y334140D01*
X218440Y340360D02*
X180340Y378460D01*
X109220Y378460D02*
X101600Y386080D01*
X218440Y340360D02*
X350520Y340360D01*
X180340Y378460D02*
X109220Y378460D01*
X1270000Y419100D02*
X1270000Y332740D01*
X1259840Y322580D01*
X510048Y279140D02*
X447990Y279140D01*
X553488Y322580D02*
X1259840Y322580D01*
X553488Y322580D02*
X510048Y279140D01*
X1295019Y418719D02*
X1295400Y419100D01*
X1295019Y418719D02*
X1295019Y348753D01*
X1263766Y317500D01*
X554874Y317500D01*
X511514Y274140D02*
X447990Y274140D01*
X511514Y274140D02*
X554874Y317500D01*
X1308100Y393700D02*
X1308481Y393319D01*
X1308481Y353209D01*
X1267692Y312420D01*
X507980Y264140D02*
X447990Y264140D01*
X556260Y312420D02*
X1267692Y312420D01*
X556260Y312420D02*
X507980Y264140D01*
X521208Y229108D02*
X546100Y254000D01*
X416155Y229108D02*
X412990Y225944D01*
X416155Y229108D02*
X521208Y229108D01*
X412990Y225944D02*
X412990Y219140D01*
X558800Y266700D02*
X571500Y254000D01*
X558800Y266700D02*
X541020Y266700D01*
X508000Y233680D01*
X411480Y233680D01*
X407990Y230190D02*
X407990Y219140D01*
X407990Y230190D02*
X411480Y233680D01*
X571500Y241300D02*
X584200Y228600D01*
X392990Y219140D02*
X392990Y168350D01*
X396240Y165100D01*
X411480Y165100D01*
X468122Y221742D02*
X530860Y221742D01*
X468122Y221742D02*
X411480Y165100D01*
X530860Y221742D02*
X550418Y241300D01*
X571500Y241300D01*
X598170Y217170D02*
X609600Y228600D01*
X598170Y217170D02*
X471170Y217170D01*
X414020Y160020D01*
X391806Y160020D01*
X387990Y163836D02*
X387990Y219140D01*
X387990Y163836D02*
X391806Y160020D01*
X618998Y212598D02*
X635000Y228600D01*
X474218Y212598D02*
X416710Y155090D01*
X474218Y212598D02*
X618998Y212598D01*
X416710Y155090D02*
X387730Y155090D01*
X382990Y159830D02*
X382990Y219140D01*
X382990Y159830D02*
X387730Y155090D01*
X698500Y254000D02*
X698500Y284480D01*
D30*
X736600Y289560D03*
D29*
X703580Y289560D01*
X698500Y284480D01*
X387990Y334140D02*
X387990Y368930D01*
X368300Y388620D01*
X368300Y419100D01*
X392990Y418390D02*
X392990Y334140D01*
X392990Y418390D02*
X393700Y419100D01*
X430414Y375920D02*
X462280Y375920D01*
X469900Y383540D01*
X469900Y419100D01*
X417990Y363496D02*
X417990Y334140D01*
X417990Y363496D02*
X430414Y375920D01*
X422990Y359490D02*
X422990Y334140D01*
X422990Y359490D02*
X434340Y370840D01*
X475366Y370840D02*
X495300Y390774D01*
X495300Y419100D01*
X475366Y370840D02*
X434340Y370840D01*
X402990Y390290D02*
X402990Y334140D01*
X402990Y390290D02*
X406400Y393700D01*
X407990Y372430D02*
X407990Y334140D01*
X429260Y393700D02*
X431800Y393700D01*
X429260Y393700D02*
X407990Y372430D01*
X412990Y367270D02*
X412990Y334140D01*
X412990Y367270D02*
X417830Y372110D01*
X426720Y381000D01*
X444500Y381000D01*
X457200Y393700D01*
X1099490Y367970D02*
X1099490Y339850D01*
X1099490Y367970D02*
X1112520Y381000D01*
X1130300Y381000D02*
X1143000Y393700D01*
X1130300Y381000D02*
X1112520Y381000D01*
X1092990Y369090D02*
X1092990Y339850D01*
X1092990Y369090D02*
X1117600Y393700D01*
X1086490Y370210D02*
X1086490Y339850D01*
X1086490Y370210D02*
X1104900Y388620D01*
X1104900Y419100D01*
X1079990Y418610D02*
X1079990Y339850D01*
X1079990Y418610D02*
X1079500Y419100D01*
X1073490Y369230D02*
X1073490Y339850D01*
X1073490Y369230D02*
X1054100Y388620D01*
X1054100Y419100D01*
X1066990Y368110D02*
X1066990Y339850D01*
X1066990Y368110D02*
X1041400Y393700D01*
X1060490Y364450D02*
X1060490Y339850D01*
X1060490Y364450D02*
X1043940Y381000D01*
X1028700Y381000D02*
X1016000Y393700D01*
X1028700Y381000D02*
X1043940Y381000D01*
X1333500Y393700D02*
X1333500Y368300D01*
X1272540Y307340D01*
X510600Y259140D02*
X447990Y259140D01*
X510600Y259140D02*
X558800Y307340D01*
X1272540Y307340D01*
X357990Y334140D02*
X357990Y343050D01*
X355600Y345440D01*
X220980Y345440D01*
X190500Y375920D01*
X190500Y419100D01*
X447990Y294140D02*
X503436Y294140D01*
X546100Y336804D01*
X686190Y336804D02*
X686190Y347980D01*
X686190Y336804D02*
X546100Y336804D01*
X773684Y336804D02*
X779780Y342900D01*
X779780Y393700D01*
X773684Y336804D02*
X686190Y336804D01*
X447990Y239140D02*
X429260Y239140D01*
X429260Y241300D01*
D30*
X429260Y241300D03*
X266700Y137160D03*
D29*
X254000Y124460D01*
X27940Y124460D01*
X17780Y134620D01*
X18540Y141480D02*
X18540Y146060D01*
X18540Y141480D02*
X20320Y139700D01*
X20320Y144280D01*
X18540Y146060D01*
X18540Y135380D01*
X17780Y134620D01*
X31240Y137170D02*
X256540Y137170D01*
X31240Y137170D02*
X31240Y146060D01*
D30*
X401320Y205740D03*
D29*
X411394Y205740D01*
D30*
X256540Y137170D03*
D29*
X417990Y212337D02*
X417990Y219140D01*
X417990Y212337D02*
X411394Y205740D01*
X1125490Y269750D02*
X1125490Y281670D01*
X1115060Y292100D01*
X1125490Y269750D02*
X1130670Y269750D01*
X1158240Y242180D01*
X506194Y289140D02*
X447990Y289140D01*
X506194Y289140D02*
X549286Y332232D01*
X891032Y332232D02*
X896620Y337820D01*
D30*
X896620Y337820D03*
X896620Y281940D03*
D29*
X906780Y292100D01*
X891032Y332232D02*
X549286Y332232D01*
X906780Y292100D02*
X1115060Y292100D01*
X1118990Y269750D02*
X1118990Y258570D01*
X1135380Y242180D01*
X507660Y284140D02*
X447990Y284140D01*
X507660Y284140D02*
X551180Y327660D01*
X899160Y327660D02*
X909320Y337820D01*
D30*
X909320Y337820D03*
X909320Y281940D03*
D29*
X914908Y287528D01*
X899160Y327660D02*
X551180Y327660D01*
X1118990Y281704D02*
X1118990Y269750D01*
X1118990Y281704D02*
X1113166Y287528D01*
X914908Y287528D01*
X1118990Y339850D02*
X1118990Y354450D01*
X1123560Y359020D02*
X1158240Y359020D01*
X1123560Y359020D02*
X1118990Y354450D01*
X205740Y269240D02*
X190500Y254000D01*
X205740Y269240D02*
X306070Y269240D01*
X308550Y266760D01*
D30*
X308550Y266760D03*
X431800Y299720D03*
D29*
X436220Y304140D01*
X447990Y304140D01*
X332990Y254140D02*
X271780Y254140D01*
X258940Y241300D01*
X228600Y241300D01*
X215900Y254000D01*
X254000Y228600D02*
X254000Y203200D01*
X259080Y198120D01*
X350520Y198120D02*
X353060Y200660D01*
X353060Y219070D01*
X352990Y219140D01*
X350520Y198120D02*
X259080Y198120D01*
X357990Y197970D02*
X357990Y219140D01*
X357990Y197970D02*
X353060Y193040D01*
X233680Y193040D01*
X228600Y198120D01*
X228600Y228600D01*
X1270000Y254000D02*
X1270000Y287020D01*
X1259840Y297180D01*
X563880Y297180D01*
X515840Y249140D02*
X447990Y249140D01*
X515840Y249140D02*
X563880Y297180D01*
X1295400Y271780D02*
X1295400Y254000D01*
X1295400Y271780D02*
X1264920Y302260D01*
X513220Y254140D02*
X447990Y254140D01*
X513220Y254140D02*
X561340Y302260D01*
X1264920Y302260D01*
X1318260Y81280D02*
X1304290Y67310D01*
X996950Y67310D01*
X866140Y198120D01*
X482600Y198120D01*
X424688Y140208D01*
X375595Y140208D01*
X367990Y147813D02*
X367990Y219140D01*
X367990Y147813D02*
X375595Y140208D01*
X1318260Y81280D02*
X1318260Y218440D01*
X1308100Y228600D01*
X1324610Y77470D02*
X1308100Y60960D01*
X995680Y60960D01*
X863600Y193040D01*
X485140Y193040D01*
X427228Y135128D02*
X371669Y135128D01*
X427228Y135128D02*
X485140Y193040D01*
X362990Y219140D02*
X362990Y143807D01*
X371669Y135128D01*
X1324610Y77470D02*
X1324610Y219710D01*
X1333500Y228600D01*
X1093208Y269532D02*
X1092990Y269750D01*
X1093208Y269532D02*
X1093208Y225451D01*
X1060797Y193040D01*
X886460Y193040D01*
X850900Y228600D01*
X647700Y213360D02*
X647700Y254000D01*
X647700Y213360D02*
X642112Y207772D01*
X477012Y207772D01*
X419100Y149860D01*
X383955Y149860D02*
X377990Y155825D01*
X383955Y149860D02*
X419100Y149860D01*
X377990Y155825D02*
X377990Y219140D01*
X673100Y208280D02*
X673100Y254000D01*
X673100Y208280D02*
X668020Y203200D01*
X480060Y203200D02*
X421640Y144780D01*
X480060Y203200D02*
X668020Y203200D01*
X421640Y144780D02*
X380029Y144780D01*
X372990Y151819D02*
X372990Y219140D01*
X372990Y151819D02*
X380029Y144780D01*
X1060490Y237530D02*
X1060490Y269750D01*
X1060490Y237530D02*
X1051560Y228600D01*
X952500Y228600D01*
X1066990Y235140D02*
X1066990Y269750D01*
X1066990Y235140D02*
X1045210Y213360D01*
X942340Y213360D01*
X927100Y228600D01*
X1073490Y232750D02*
X1073490Y269750D01*
X1073490Y232750D02*
X1049020Y208280D01*
X929640Y208280D01*
X914400Y223520D01*
X914400Y254000D01*
X1079990Y269750D02*
X1080208Y269532D01*
X1080208Y230462D01*
X1052946Y203200D01*
X909320Y203200D02*
X889000Y223520D01*
X889000Y254000D01*
X909320Y203200D02*
X1052946Y203200D01*
X1086708Y269532D02*
X1086490Y269750D01*
X1086708Y269532D02*
X1086708Y227956D01*
X1056872Y198120D01*
X889000Y198120D01*
X863600Y223520D01*
X863600Y254000D01*
D30*
X800100Y340360D03*
D29*
X800100Y383540D01*
X810260Y393700D01*
X990600Y393700D01*
X1099490Y269750D02*
X1098438Y268698D01*
X1098438Y221675D01*
X1064723Y187960D01*
X883920Y187960D01*
X868680Y203200D01*
X850900Y203200D02*
X825500Y228600D01*
X850900Y203200D02*
X868680Y203200D01*
X332990Y249140D02*
X332770Y248920D01*
X287020Y248920D02*
X276860Y238760D01*
X276860Y237100D01*
X287020Y248920D02*
X332770Y248920D01*
X402990Y232010D02*
X402990Y219140D01*
X402990Y232010D02*
X396240Y238760D01*
D30*
X396240Y238760D03*
X314960Y185420D03*
D29*
X142240Y185420D01*
X109220Y185420D01*
X55880Y238760D01*
X-12700Y238760D01*
X-20320Y231140D01*
X-20320Y190500D01*
X142240Y193040D02*
X142240Y185420D01*
D30*
X142240Y193040D03*
D29*
X-19560Y186700D02*
X-20320Y187460D01*
X-20320Y190500D01*
X397990Y219140D02*
X397990Y226850D01*
X386080Y238760D01*
X383540Y238760D01*
D30*
X383540Y238760D03*
X297180Y177800D03*
D29*
X104140Y180340D02*
X53340Y231140D01*
X0Y231140D01*
X-7620Y223520D01*
X-7620Y187460D01*
X294640Y180340D02*
X297180Y177800D01*
X294640Y180340D02*
X104140Y180340D01*
X-6860Y186700D02*
X-7620Y187460D01*
X1105990Y253316D02*
X1105990Y269750D01*
X1105990Y253316D02*
X1105660Y252986D01*
D30*
X1105660Y252986D03*
X1173480Y254000D03*
D29*
X1242060Y254000D01*
X1254760Y241300D01*
X1338580Y241300D01*
X1346200Y233680D01*
X1346200Y157480D02*
X1356360Y147320D01*
X1394460Y147320D01*
X1346200Y157480D02*
X1346200Y233680D01*
X1053990Y339850D02*
X1053772Y339632D01*
X1053772Y331060D01*
X1057680Y327152D01*
X1200912Y327152D02*
X1203960Y330200D01*
D30*
X1203960Y330200D03*
D29*
X1200912Y327152D02*
X1057680Y327152D01*
X344170Y355990D02*
X326390Y355990D01*
X322580Y359800D01*
X344170Y355990D02*
X347980Y359800D01*
X351790Y355990D02*
X362830Y355990D01*
X351790Y355990D02*
X347980Y359800D01*
X362830Y355990D02*
X367990Y350830D01*
X279400Y364490D02*
X279400Y368300D01*
X279400Y364490D02*
X288290Y355600D01*
X318380Y355600D01*
X322580Y359800D01*
X367990Y350830D02*
X367990Y334140D01*
M02*
