M48
;GenerationSoftware,Autodesk,EAGLE,9.4.2*%
;CreationDate,2019-10-17T12:43:34Z*%
FMAT,2
ICI,OFF
METRIC,TZ,000.000
T6C0.350
T5C0.890
T4C0.914
T3C1.016
T2C3.000
T1C3.250
%
G90
M71
T1
X-3890Y25750
X-3890Y35910
T2
X3500Y3500
X152500Y3500
X3500Y43500
X152500Y43500
T3
X21336Y5588
X17526Y5588
T4
X130810Y39370
X133350Y39370
X134620Y41910
X135890Y39370
X137160Y41910
X138430Y39370
X139700Y41910
X140970Y39370
X54610Y25400
X55880Y22860
X57150Y25400
X58420Y22860
X59690Y25400
X60960Y22860
X62230Y25400
X63500Y22860
X64770Y25400
X66040Y22860
X67310Y25400
X68580Y22860
X69850Y25400
X71120Y22860
X36830Y41910
X38100Y39370
X132080Y41910
X39370Y41910
X40640Y39370
X41910Y41910
X43180Y39370
X44450Y41910
X45720Y39370
X46990Y41910
X48260Y39370
X49530Y41910
X50800Y39370
X52070Y41910
X53340Y39370
X95250Y22860
X93980Y25400
X92710Y22860
X91440Y25400
X90170Y22860
X88900Y25400
X87630Y22860
X86360Y25400
X85090Y22860
X83820Y25400
X82550Y22860
X81280Y25400
X80010Y22860
X78740Y25400
X114300Y39370
X111760Y39370
X110490Y41910
X109220Y39370
X107950Y41910
X106680Y39370
X105410Y41910
X104140Y39370
X102870Y41910
X101600Y39370
X100330Y41910
X99060Y39370
X97790Y41910
X16510Y14986
X14224Y14986
X139446Y14732
X141986Y14732
X77978Y41910
X77978Y39370
X43434Y4826
X20320Y39370
X45466Y4826
X8128Y36322
X8128Y38354
X25400Y22860
X24130Y25400
X22860Y22860
X21590Y25400
X20320Y22860
X19050Y25400
X17780Y22860
X16510Y25400
X15240Y22860
X13970Y25400
X12700Y22860
X11430Y25400
X25400Y39370
X24130Y41910
X22860Y39370
X21590Y41910
X113030Y41910
X19050Y41910
X17780Y39370
X16510Y41910
X15240Y39370
X13970Y41910
X12700Y39370
X11430Y41910
X127000Y25400
X128270Y22860
X129540Y25400
X130810Y22860
X132080Y25400
X133350Y22860
X134620Y25400
X135890Y22860
X137160Y25400
X138430Y22860
X139700Y25400
X140970Y22860
X127000Y41910
X128270Y39370
X129540Y41910
T5
X2460Y32730
X5000Y31460
X2460Y30190
X2460Y27650
X5000Y28920
X5000Y34000
T6
X107188Y18288
X32258Y38862
X27686Y20828
X40005Y17780
X44958Y34544
X50307Y32004
X25654Y30988
X60452Y35306
X71120Y42164
X26162Y20828
X114046Y34036
X10668Y34290
X10668Y29718
X51054Y34036
X40132Y10922
X40132Y11938
X21971Y31115
X42926Y26924
X42926Y25400
X26670Y15748
X37719Y27686
X26670Y16764
X118872Y34290
X112283Y22098
X43688Y34544
X48514Y34544
X41422Y17780
X29464Y20828
X25654Y29337
X66040Y42164
X66040Y36322
X44958Y7366
X43688Y7366
X42418Y7366
X19304Y34290
X30988Y36830
X46736Y30597
X32004Y26670
X8443Y45273
X74676Y28956
X74676Y38608
X23368Y36576
X9652Y36068
X16764Y31750
X73660Y28956
X42926Y24130
X26670Y13716
X40132Y20574
X25654Y13717
X89662Y33782
X89662Y28194
X90932Y33782
X90932Y28194
X30855Y26676
X43180Y29972
X80010Y34036
X39624Y23876
X31496Y18542
X14224Y19304
X38354Y23876
X29718Y17780
X110566Y25299
X117348Y25400
X120396Y33020
X2286Y21336
X3694Y26670
X4826Y26670
X5842Y26670
X104902Y24638
X70866Y36830
X26645Y12725
M30