G04 EAGLE Gerber RS-274X export*
G75*
%MOMM*%
%FSLAX34Y34*%
%LPD*%
%INSoldermask Top*%
%IPPOS*%
%AMOC8*
5,1,8,0,0,1.08239X$1,22.5*%
G01*
%ADD10C,5.943600*%
%ADD11R,1.499600X1.499600*%
%ADD12C,1.499600*%
%ADD13C,3.351600*%
%ADD14R,1.501600X0.401600*%
%ADD15R,0.838200X2.895600*%
%ADD16R,1.101600X1.201600*%
%ADD17R,0.901600X0.901600*%
%ADD18R,1.201600X1.101600*%
%ADD19C,0.343144*%
%ADD20R,0.406400X1.295400*%
%ADD21R,1.295400X0.406400*%
%ADD22P,1.842011X8X202.500000*%
%ADD23P,1.842011X8X22.500000*%
%ADD24P,2.859241X8X22.500000*%
%ADD25R,1.501600X1.101600*%
%ADD26C,1.524000*%
%ADD27R,2.301600X0.701600*%
%ADD28R,1.270000X1.701800*%
%ADD29C,0.858000*%


D10*
X35000Y35000D03*
X1525000Y35000D03*
D11*
X50000Y340000D03*
D12*
X24600Y327300D03*
X50000Y314600D03*
X24600Y301900D03*
X50000Y289200D03*
X24600Y276500D03*
D13*
X-38900Y359100D03*
X-38900Y257500D03*
D10*
X35000Y435000D03*
X1525000Y435000D03*
D14*
X663800Y401160D03*
X663800Y396160D03*
X663800Y391160D03*
X663800Y386160D03*
X663800Y381160D03*
X707800Y381160D03*
X707800Y386160D03*
X707800Y391160D03*
X707800Y396160D03*
X707800Y401160D03*
D15*
X31240Y186700D03*
X31240Y146060D03*
X18540Y186700D03*
X18540Y146060D03*
X5840Y186700D03*
X5840Y146060D03*
X-6860Y186700D03*
X-6860Y146060D03*
X-19560Y186700D03*
X-19560Y146060D03*
D16*
X562220Y353060D03*
X545220Y353060D03*
D17*
X591700Y353060D03*
X576700Y353060D03*
D16*
X391160Y77860D03*
X391160Y94860D03*
X411480Y77860D03*
X411480Y94860D03*
X269240Y55000D03*
X269240Y72000D03*
D18*
X677300Y421640D03*
X694300Y421640D03*
D16*
X731520Y386960D03*
X731520Y369960D03*
D19*
X1055183Y278043D02*
X1055183Y261457D01*
X1052797Y261457D01*
X1052797Y278043D01*
X1055183Y278043D01*
X1055183Y264716D02*
X1052797Y264716D01*
X1052797Y267975D02*
X1055183Y267975D01*
X1055183Y271234D02*
X1052797Y271234D01*
X1052797Y274493D02*
X1055183Y274493D01*
X1055183Y277752D02*
X1052797Y277752D01*
X1061683Y278043D02*
X1061683Y261457D01*
X1059297Y261457D01*
X1059297Y278043D01*
X1061683Y278043D01*
X1061683Y264716D02*
X1059297Y264716D01*
X1059297Y267975D02*
X1061683Y267975D01*
X1061683Y271234D02*
X1059297Y271234D01*
X1059297Y274493D02*
X1061683Y274493D01*
X1061683Y277752D02*
X1059297Y277752D01*
X1068183Y278043D02*
X1068183Y261457D01*
X1065797Y261457D01*
X1065797Y278043D01*
X1068183Y278043D01*
X1068183Y264716D02*
X1065797Y264716D01*
X1065797Y267975D02*
X1068183Y267975D01*
X1068183Y271234D02*
X1065797Y271234D01*
X1065797Y274493D02*
X1068183Y274493D01*
X1068183Y277752D02*
X1065797Y277752D01*
X1074683Y278043D02*
X1074683Y261457D01*
X1072297Y261457D01*
X1072297Y278043D01*
X1074683Y278043D01*
X1074683Y264716D02*
X1072297Y264716D01*
X1072297Y267975D02*
X1074683Y267975D01*
X1074683Y271234D02*
X1072297Y271234D01*
X1072297Y274493D02*
X1074683Y274493D01*
X1074683Y277752D02*
X1072297Y277752D01*
X1081183Y278043D02*
X1081183Y261457D01*
X1078797Y261457D01*
X1078797Y278043D01*
X1081183Y278043D01*
X1081183Y264716D02*
X1078797Y264716D01*
X1078797Y267975D02*
X1081183Y267975D01*
X1081183Y271234D02*
X1078797Y271234D01*
X1078797Y274493D02*
X1081183Y274493D01*
X1081183Y277752D02*
X1078797Y277752D01*
X1087683Y278043D02*
X1087683Y261457D01*
X1085297Y261457D01*
X1085297Y278043D01*
X1087683Y278043D01*
X1087683Y264716D02*
X1085297Y264716D01*
X1085297Y267975D02*
X1087683Y267975D01*
X1087683Y271234D02*
X1085297Y271234D01*
X1085297Y274493D02*
X1087683Y274493D01*
X1087683Y277752D02*
X1085297Y277752D01*
X1094183Y278043D02*
X1094183Y261457D01*
X1091797Y261457D01*
X1091797Y278043D01*
X1094183Y278043D01*
X1094183Y264716D02*
X1091797Y264716D01*
X1091797Y267975D02*
X1094183Y267975D01*
X1094183Y271234D02*
X1091797Y271234D01*
X1091797Y274493D02*
X1094183Y274493D01*
X1094183Y277752D02*
X1091797Y277752D01*
X1100683Y278043D02*
X1100683Y261457D01*
X1098297Y261457D01*
X1098297Y278043D01*
X1100683Y278043D01*
X1100683Y264716D02*
X1098297Y264716D01*
X1098297Y267975D02*
X1100683Y267975D01*
X1100683Y271234D02*
X1098297Y271234D01*
X1098297Y274493D02*
X1100683Y274493D01*
X1100683Y277752D02*
X1098297Y277752D01*
X1107183Y278043D02*
X1107183Y261457D01*
X1104797Y261457D01*
X1104797Y278043D01*
X1107183Y278043D01*
X1107183Y264716D02*
X1104797Y264716D01*
X1104797Y267975D02*
X1107183Y267975D01*
X1107183Y271234D02*
X1104797Y271234D01*
X1104797Y274493D02*
X1107183Y274493D01*
X1107183Y277752D02*
X1104797Y277752D01*
X1113683Y278043D02*
X1113683Y261457D01*
X1111297Y261457D01*
X1111297Y278043D01*
X1113683Y278043D01*
X1113683Y264716D02*
X1111297Y264716D01*
X1111297Y267975D02*
X1113683Y267975D01*
X1113683Y271234D02*
X1111297Y271234D01*
X1111297Y274493D02*
X1113683Y274493D01*
X1113683Y277752D02*
X1111297Y277752D01*
X1120183Y278043D02*
X1120183Y261457D01*
X1117797Y261457D01*
X1117797Y278043D01*
X1120183Y278043D01*
X1120183Y264716D02*
X1117797Y264716D01*
X1117797Y267975D02*
X1120183Y267975D01*
X1120183Y271234D02*
X1117797Y271234D01*
X1117797Y274493D02*
X1120183Y274493D01*
X1120183Y277752D02*
X1117797Y277752D01*
X1126683Y278043D02*
X1126683Y261457D01*
X1124297Y261457D01*
X1124297Y278043D01*
X1126683Y278043D01*
X1126683Y264716D02*
X1124297Y264716D01*
X1124297Y267975D02*
X1126683Y267975D01*
X1126683Y271234D02*
X1124297Y271234D01*
X1124297Y274493D02*
X1126683Y274493D01*
X1126683Y277752D02*
X1124297Y277752D01*
X1126683Y331557D02*
X1126683Y348143D01*
X1126683Y331557D02*
X1124297Y331557D01*
X1124297Y348143D01*
X1126683Y348143D01*
X1126683Y334816D02*
X1124297Y334816D01*
X1124297Y338075D02*
X1126683Y338075D01*
X1126683Y341334D02*
X1124297Y341334D01*
X1124297Y344593D02*
X1126683Y344593D01*
X1126683Y347852D02*
X1124297Y347852D01*
X1120183Y348143D02*
X1120183Y331557D01*
X1117797Y331557D01*
X1117797Y348143D01*
X1120183Y348143D01*
X1120183Y334816D02*
X1117797Y334816D01*
X1117797Y338075D02*
X1120183Y338075D01*
X1120183Y341334D02*
X1117797Y341334D01*
X1117797Y344593D02*
X1120183Y344593D01*
X1120183Y347852D02*
X1117797Y347852D01*
X1113683Y348143D02*
X1113683Y331557D01*
X1111297Y331557D01*
X1111297Y348143D01*
X1113683Y348143D01*
X1113683Y334816D02*
X1111297Y334816D01*
X1111297Y338075D02*
X1113683Y338075D01*
X1113683Y341334D02*
X1111297Y341334D01*
X1111297Y344593D02*
X1113683Y344593D01*
X1113683Y347852D02*
X1111297Y347852D01*
X1107183Y348143D02*
X1107183Y331557D01*
X1104797Y331557D01*
X1104797Y348143D01*
X1107183Y348143D01*
X1107183Y334816D02*
X1104797Y334816D01*
X1104797Y338075D02*
X1107183Y338075D01*
X1107183Y341334D02*
X1104797Y341334D01*
X1104797Y344593D02*
X1107183Y344593D01*
X1107183Y347852D02*
X1104797Y347852D01*
X1100683Y348143D02*
X1100683Y331557D01*
X1098297Y331557D01*
X1098297Y348143D01*
X1100683Y348143D01*
X1100683Y334816D02*
X1098297Y334816D01*
X1098297Y338075D02*
X1100683Y338075D01*
X1100683Y341334D02*
X1098297Y341334D01*
X1098297Y344593D02*
X1100683Y344593D01*
X1100683Y347852D02*
X1098297Y347852D01*
X1094183Y348143D02*
X1094183Y331557D01*
X1091797Y331557D01*
X1091797Y348143D01*
X1094183Y348143D01*
X1094183Y334816D02*
X1091797Y334816D01*
X1091797Y338075D02*
X1094183Y338075D01*
X1094183Y341334D02*
X1091797Y341334D01*
X1091797Y344593D02*
X1094183Y344593D01*
X1094183Y347852D02*
X1091797Y347852D01*
X1087683Y348143D02*
X1087683Y331557D01*
X1085297Y331557D01*
X1085297Y348143D01*
X1087683Y348143D01*
X1087683Y334816D02*
X1085297Y334816D01*
X1085297Y338075D02*
X1087683Y338075D01*
X1087683Y341334D02*
X1085297Y341334D01*
X1085297Y344593D02*
X1087683Y344593D01*
X1087683Y347852D02*
X1085297Y347852D01*
X1081183Y348143D02*
X1081183Y331557D01*
X1078797Y331557D01*
X1078797Y348143D01*
X1081183Y348143D01*
X1081183Y334816D02*
X1078797Y334816D01*
X1078797Y338075D02*
X1081183Y338075D01*
X1081183Y341334D02*
X1078797Y341334D01*
X1078797Y344593D02*
X1081183Y344593D01*
X1081183Y347852D02*
X1078797Y347852D01*
X1074683Y348143D02*
X1074683Y331557D01*
X1072297Y331557D01*
X1072297Y348143D01*
X1074683Y348143D01*
X1074683Y334816D02*
X1072297Y334816D01*
X1072297Y338075D02*
X1074683Y338075D01*
X1074683Y341334D02*
X1072297Y341334D01*
X1072297Y344593D02*
X1074683Y344593D01*
X1074683Y347852D02*
X1072297Y347852D01*
X1068183Y348143D02*
X1068183Y331557D01*
X1065797Y331557D01*
X1065797Y348143D01*
X1068183Y348143D01*
X1068183Y334816D02*
X1065797Y334816D01*
X1065797Y338075D02*
X1068183Y338075D01*
X1068183Y341334D02*
X1065797Y341334D01*
X1065797Y344593D02*
X1068183Y344593D01*
X1068183Y347852D02*
X1065797Y347852D01*
X1061683Y348143D02*
X1061683Y331557D01*
X1059297Y331557D01*
X1059297Y348143D01*
X1061683Y348143D01*
X1061683Y334816D02*
X1059297Y334816D01*
X1059297Y338075D02*
X1061683Y338075D01*
X1061683Y341334D02*
X1059297Y341334D01*
X1059297Y344593D02*
X1061683Y344593D01*
X1061683Y347852D02*
X1059297Y347852D01*
X1055183Y348143D02*
X1055183Y331557D01*
X1052797Y331557D01*
X1052797Y348143D01*
X1055183Y348143D01*
X1055183Y334816D02*
X1052797Y334816D01*
X1052797Y338075D02*
X1055183Y338075D01*
X1055183Y341334D02*
X1052797Y341334D01*
X1052797Y344593D02*
X1055183Y344593D01*
X1055183Y347852D02*
X1052797Y347852D01*
D20*
X427990Y334140D03*
X422990Y334140D03*
X417990Y334140D03*
X412990Y334140D03*
X407990Y334140D03*
X402990Y334140D03*
X397990Y334140D03*
X392990Y334140D03*
X387990Y334140D03*
X382990Y334140D03*
X377990Y334140D03*
X372990Y334140D03*
X367990Y334140D03*
X362990Y334140D03*
X357990Y334140D03*
X352990Y334140D03*
D21*
X332990Y314140D03*
X332990Y309140D03*
X332990Y304140D03*
X332990Y299140D03*
X332990Y294140D03*
X332990Y289140D03*
X332990Y284140D03*
X332990Y279140D03*
X332990Y274140D03*
X332990Y269140D03*
X332990Y264140D03*
X332990Y259140D03*
X332990Y254140D03*
X332990Y249140D03*
X332990Y244140D03*
X332990Y239140D03*
D20*
X352990Y219140D03*
X357990Y219140D03*
X362990Y219140D03*
X367990Y219140D03*
X372990Y219140D03*
X377990Y219140D03*
X382990Y219140D03*
X387990Y219140D03*
X392990Y219140D03*
X397990Y219140D03*
X402990Y219140D03*
X407990Y219140D03*
X412990Y219140D03*
X417990Y219140D03*
X422990Y219140D03*
X427990Y219140D03*
D21*
X447990Y239140D03*
X447990Y244140D03*
X447990Y249140D03*
X447990Y254140D03*
X447990Y259140D03*
X447990Y264140D03*
X447990Y269140D03*
X447990Y274140D03*
X447990Y279140D03*
X447990Y284140D03*
X447990Y289140D03*
X447990Y294140D03*
X447990Y299140D03*
X447990Y304140D03*
X447990Y309140D03*
X447990Y314140D03*
D16*
X1112520Y242180D03*
X1112520Y225180D03*
D18*
X1158240Y359020D03*
X1158240Y342020D03*
X1158240Y242180D03*
X1158240Y225180D03*
X1135380Y242180D03*
X1135380Y225180D03*
D22*
X254000Y228600D03*
X241300Y254000D03*
X228600Y228600D03*
X215900Y254000D03*
X203200Y228600D03*
X190500Y254000D03*
X177800Y228600D03*
X165100Y254000D03*
X152400Y228600D03*
X139700Y254000D03*
X127000Y228600D03*
X114300Y254000D03*
X254000Y393700D03*
X241300Y419100D03*
X228600Y393700D03*
X215900Y419100D03*
X203200Y393700D03*
X190500Y419100D03*
X177800Y393700D03*
X165100Y419100D03*
X152400Y393700D03*
X139700Y419100D03*
X127000Y393700D03*
X114300Y419100D03*
D23*
X1270000Y254000D03*
X1282700Y228600D03*
X1295400Y254000D03*
X1308100Y228600D03*
X1320800Y254000D03*
X1333500Y228600D03*
X1346200Y254000D03*
X1358900Y228600D03*
X1371600Y254000D03*
X1384300Y228600D03*
X1397000Y254000D03*
X1409700Y228600D03*
X1270000Y419100D03*
X1282700Y393700D03*
X1295400Y419100D03*
X1308100Y393700D03*
X1320800Y419100D03*
X1333500Y393700D03*
X1346200Y419100D03*
X1358900Y393700D03*
X1371600Y419100D03*
X1384300Y393700D03*
X1397000Y419100D03*
X1409700Y393700D03*
X546100Y254000D03*
X558800Y228600D03*
X571500Y254000D03*
X584200Y228600D03*
X596900Y254000D03*
X609600Y228600D03*
X622300Y254000D03*
X635000Y228600D03*
X647700Y254000D03*
X660400Y228600D03*
X673100Y254000D03*
X685800Y228600D03*
X698500Y254000D03*
X711200Y228600D03*
X368300Y419100D03*
X381000Y393700D03*
X393700Y419100D03*
X406400Y393700D03*
X419100Y419100D03*
X431800Y393700D03*
X444500Y419100D03*
X457200Y393700D03*
X469900Y419100D03*
X482600Y393700D03*
X495300Y419100D03*
X508000Y393700D03*
X520700Y419100D03*
X533400Y393700D03*
D22*
X952500Y228600D03*
X939800Y254000D03*
X927100Y228600D03*
X914400Y254000D03*
X901700Y228600D03*
X889000Y254000D03*
X876300Y228600D03*
X863600Y254000D03*
X850900Y228600D03*
X838200Y254000D03*
X825500Y228600D03*
X812800Y254000D03*
X800100Y228600D03*
X787400Y254000D03*
X1143000Y393700D03*
X1130300Y419100D03*
X1117600Y393700D03*
X1104900Y419100D03*
X1092200Y393700D03*
X1079500Y419100D03*
X1066800Y393700D03*
X1054100Y419100D03*
X1041400Y393700D03*
X1028700Y419100D03*
X1016000Y393700D03*
X1003300Y419100D03*
X990600Y393700D03*
X977900Y419100D03*
D16*
X276860Y237100D03*
X276860Y220100D03*
X297180Y220100D03*
X297180Y237100D03*
X292100Y293760D03*
X292100Y310760D03*
D18*
X422520Y193040D03*
X405520Y193040D03*
D16*
X472440Y334890D03*
X472440Y317890D03*
D18*
X438540Y358140D03*
X455540Y358140D03*
D16*
X322580Y359800D03*
X322580Y376800D03*
X271780Y293760D03*
X271780Y310760D03*
X492760Y334890D03*
X492760Y317890D03*
X347980Y359800D03*
X347980Y376800D03*
X703190Y347980D03*
X686190Y347980D03*
D24*
X175260Y55880D03*
X213360Y55880D03*
D23*
X165100Y149860D03*
X142240Y149860D03*
X1394460Y147320D03*
X1419860Y147320D03*
D25*
X143080Y333400D03*
X143080Y352400D03*
X121080Y342900D03*
X143080Y287680D03*
X143080Y306680D03*
X121080Y297180D03*
D26*
X772668Y419100D02*
X786892Y419100D01*
X786892Y393700D02*
X772668Y393700D01*
D16*
X509660Y353060D03*
X526660Y353060D03*
D27*
X311820Y80010D03*
X363820Y80010D03*
X311820Y92710D03*
X311820Y67310D03*
X311820Y54610D03*
X363820Y92710D03*
X363820Y67310D03*
X363820Y54610D03*
D18*
X205740Y293760D03*
X205740Y310760D03*
X185420Y310760D03*
X185420Y293760D03*
X175260Y347100D03*
X175260Y364100D03*
D28*
X264160Y368300D03*
X279400Y368300D03*
X294640Y368300D03*
D23*
X434340Y48260D03*
X454660Y48260D03*
X81280Y363220D03*
X81280Y383540D03*
D29*
X22860Y213360D03*
X36940Y266700D03*
X48260Y266700D03*
X58420Y266700D03*
X1049020Y246380D03*
X708660Y368300D03*
X1071880Y182880D03*
X322580Y388620D03*
X276860Y208280D03*
X400050Y177800D03*
X449580Y345440D03*
X503066Y320040D03*
X256540Y309880D03*
X604520Y353060D03*
X711200Y421640D03*
X261620Y208280D03*
X1140460Y340360D03*
X106680Y342900D03*
X106680Y297180D03*
X510540Y340360D03*
X401320Y109220D03*
X401320Y119380D03*
X219710Y311150D03*
X429260Y269240D03*
X266450Y127250D03*
X429260Y254000D03*
X266700Y157480D03*
X377190Y276860D03*
X266700Y167640D03*
X1188720Y342900D03*
X1122826Y220980D03*
X436880Y345440D03*
X485140Y345440D03*
X414218Y177800D03*
X294640Y208280D03*
X256540Y293370D03*
X660400Y421640D03*
X660400Y363220D03*
X449580Y73660D03*
X436880Y73660D03*
X424180Y73660D03*
X193040Y342900D03*
X309880Y368300D03*
X467360Y305970D03*
X320040Y266700D03*
X84428Y452728D03*
X746760Y289560D03*
X746760Y386080D03*
X233680Y365760D03*
X96520Y360680D03*
X167640Y317500D03*
X736600Y289560D03*
X429260Y241300D03*
X266700Y137160D03*
X401320Y205740D03*
X256540Y137170D03*
X896620Y337820D03*
X896620Y281940D03*
X909320Y337820D03*
X909320Y281940D03*
X308550Y266760D03*
X431800Y299720D03*
X800100Y340360D03*
X396240Y238760D03*
X314960Y185420D03*
X142240Y193040D03*
X383540Y238760D03*
X297180Y177800D03*
X1105660Y252986D03*
X1173480Y254000D03*
X1203960Y330200D03*
M02*
