G04 EAGLE Gerber RS-274X export*
G75*
%MOMM*%
%FSLAX34Y34*%
%LPD*%
%INSoldermask Bottom*%
%IPPOS*%
%AMOC8*
5,1,8,0,0,1.08239X$1,22.5*%
G01*
%ADD10C,5.943600*%
%ADD11R,1.499600X1.499600*%
%ADD12C,1.499600*%
%ADD13C,3.351600*%
%ADD14P,1.842011X8X202.500000*%
%ADD15P,1.842011X8X22.500000*%
%ADD16P,2.859241X8X22.500000*%
%ADD17C,1.524000*%
%ADD18C,0.858000*%


D10*
X35000Y35000D03*
X1525000Y35000D03*
D11*
X50000Y340000D03*
D12*
X24600Y327300D03*
X50000Y314600D03*
X24600Y301900D03*
X50000Y289200D03*
X24600Y276500D03*
D13*
X-38900Y359100D03*
X-38900Y257500D03*
D10*
X35000Y435000D03*
X1525000Y435000D03*
D14*
X254000Y228600D03*
X241300Y254000D03*
X228600Y228600D03*
X215900Y254000D03*
X203200Y228600D03*
X190500Y254000D03*
X177800Y228600D03*
X165100Y254000D03*
X152400Y228600D03*
X139700Y254000D03*
X127000Y228600D03*
X114300Y254000D03*
X254000Y393700D03*
X241300Y419100D03*
X228600Y393700D03*
X215900Y419100D03*
X203200Y393700D03*
X190500Y419100D03*
X177800Y393700D03*
X165100Y419100D03*
X152400Y393700D03*
X139700Y419100D03*
X127000Y393700D03*
X114300Y419100D03*
D15*
X1270000Y254000D03*
X1282700Y228600D03*
X1295400Y254000D03*
X1308100Y228600D03*
X1320800Y254000D03*
X1333500Y228600D03*
X1346200Y254000D03*
X1358900Y228600D03*
X1371600Y254000D03*
X1384300Y228600D03*
X1397000Y254000D03*
X1409700Y228600D03*
X1270000Y419100D03*
X1282700Y393700D03*
X1295400Y419100D03*
X1308100Y393700D03*
X1320800Y419100D03*
X1333500Y393700D03*
X1346200Y419100D03*
X1358900Y393700D03*
X1371600Y419100D03*
X1384300Y393700D03*
X1397000Y419100D03*
X1409700Y393700D03*
X546100Y254000D03*
X558800Y228600D03*
X571500Y254000D03*
X584200Y228600D03*
X596900Y254000D03*
X609600Y228600D03*
X622300Y254000D03*
X635000Y228600D03*
X647700Y254000D03*
X660400Y228600D03*
X673100Y254000D03*
X685800Y228600D03*
X698500Y254000D03*
X711200Y228600D03*
X368300Y419100D03*
X381000Y393700D03*
X393700Y419100D03*
X406400Y393700D03*
X419100Y419100D03*
X431800Y393700D03*
X444500Y419100D03*
X457200Y393700D03*
X469900Y419100D03*
X482600Y393700D03*
X495300Y419100D03*
X508000Y393700D03*
X520700Y419100D03*
X533400Y393700D03*
D14*
X952500Y228600D03*
X939800Y254000D03*
X927100Y228600D03*
X914400Y254000D03*
X901700Y228600D03*
X889000Y254000D03*
X876300Y228600D03*
X863600Y254000D03*
X850900Y228600D03*
X838200Y254000D03*
X825500Y228600D03*
X812800Y254000D03*
X800100Y228600D03*
X787400Y254000D03*
X1143000Y393700D03*
X1130300Y419100D03*
X1117600Y393700D03*
X1104900Y419100D03*
X1092200Y393700D03*
X1079500Y419100D03*
X1066800Y393700D03*
X1054100Y419100D03*
X1041400Y393700D03*
X1028700Y419100D03*
X1016000Y393700D03*
X1003300Y419100D03*
X990600Y393700D03*
X977900Y419100D03*
D16*
X175260Y55880D03*
X213360Y55880D03*
D15*
X165100Y149860D03*
X142240Y149860D03*
X1394460Y147320D03*
X1419860Y147320D03*
D17*
X786892Y419100D02*
X772668Y419100D01*
X772668Y393700D02*
X786892Y393700D01*
D15*
X434340Y48260D03*
X454660Y48260D03*
X81280Y363220D03*
X81280Y383540D03*
D18*
X22860Y213360D03*
X36940Y266700D03*
X48260Y266700D03*
X58420Y266700D03*
X1049020Y246380D03*
X708660Y368300D03*
X1071880Y182880D03*
X322580Y388620D03*
X276860Y208280D03*
X400050Y177800D03*
X449580Y345440D03*
X503066Y320040D03*
X256540Y309880D03*
X604520Y353060D03*
X711200Y421640D03*
X261620Y208280D03*
X1140460Y340360D03*
X106680Y342900D03*
X106680Y297180D03*
X510540Y340360D03*
X401320Y109220D03*
X401320Y119380D03*
X219710Y311150D03*
X429260Y269240D03*
X266450Y127250D03*
X429260Y254000D03*
X266700Y157480D03*
X377190Y276860D03*
X266700Y167640D03*
X1188720Y342900D03*
X1122826Y220980D03*
X436880Y345440D03*
X485140Y345440D03*
X414218Y177800D03*
X294640Y208280D03*
X256540Y293370D03*
X660400Y421640D03*
X660400Y363220D03*
X449580Y73660D03*
X436880Y73660D03*
X424180Y73660D03*
X193040Y342900D03*
X309880Y368300D03*
X467360Y305970D03*
X320040Y266700D03*
X84428Y452728D03*
X746760Y289560D03*
X746760Y386080D03*
X233680Y365760D03*
X96520Y360680D03*
X167640Y317500D03*
X736600Y289560D03*
X429260Y241300D03*
X266700Y137160D03*
X401320Y205740D03*
X256540Y137170D03*
X896620Y337820D03*
X896620Y281940D03*
X909320Y337820D03*
X909320Y281940D03*
X308550Y266760D03*
X431800Y299720D03*
X800100Y340360D03*
X396240Y238760D03*
X314960Y185420D03*
X142240Y193040D03*
X383540Y238760D03*
X297180Y177800D03*
X1105660Y252986D03*
X1173480Y254000D03*
X1203960Y330200D03*
M02*
