G04 EAGLE Gerber RS-274X export*
G75*
%MOMM*%
%FSLAX34Y34*%
%LPD*%
%INSolderpaste Top*%
%IPPOS*%
%AMOC8*
5,1,8,0,0,1.08239X$1,22.5*%
G01*
%ADD10R,1.400000X0.300000*%
%ADD11R,0.736600X2.794000*%
%ADD12R,1.000000X1.100000*%
%ADD13R,0.800000X0.800000*%
%ADD14R,1.100000X1.000000*%
%ADD15C,0.240000*%
%ADD16R,0.304800X1.193800*%
%ADD17R,1.193800X0.304800*%
%ADD18R,1.400000X1.000000*%
%ADD19R,2.200000X0.600000*%
%ADD20R,1.168400X1.600200*%


D10*
X663800Y401160D03*
X663800Y396160D03*
X663800Y391160D03*
X663800Y386160D03*
X663800Y381160D03*
X707800Y381160D03*
X707800Y386160D03*
X707800Y391160D03*
X707800Y396160D03*
X707800Y401160D03*
D11*
X31240Y186700D03*
X31240Y146060D03*
X18540Y186700D03*
X18540Y146060D03*
X5840Y186700D03*
X5840Y146060D03*
X-6860Y186700D03*
X-6860Y146060D03*
X-19560Y186700D03*
X-19560Y146060D03*
D12*
X562220Y353060D03*
X545220Y353060D03*
D13*
X591700Y353060D03*
X576700Y353060D03*
D12*
X391160Y77860D03*
X391160Y94860D03*
X411480Y77860D03*
X411480Y94860D03*
X269240Y55000D03*
X269240Y72000D03*
D14*
X677300Y421640D03*
X694300Y421640D03*
D12*
X731520Y386960D03*
X731520Y369960D03*
D15*
X1055190Y278050D02*
X1055190Y261450D01*
X1052790Y261450D01*
X1052790Y278050D01*
X1055190Y278050D01*
X1055190Y263730D02*
X1052790Y263730D01*
X1052790Y266010D02*
X1055190Y266010D01*
X1055190Y268290D02*
X1052790Y268290D01*
X1052790Y270570D02*
X1055190Y270570D01*
X1055190Y272850D02*
X1052790Y272850D01*
X1052790Y275130D02*
X1055190Y275130D01*
X1055190Y277410D02*
X1052790Y277410D01*
X1061690Y278050D02*
X1061690Y261450D01*
X1059290Y261450D01*
X1059290Y278050D01*
X1061690Y278050D01*
X1061690Y263730D02*
X1059290Y263730D01*
X1059290Y266010D02*
X1061690Y266010D01*
X1061690Y268290D02*
X1059290Y268290D01*
X1059290Y270570D02*
X1061690Y270570D01*
X1061690Y272850D02*
X1059290Y272850D01*
X1059290Y275130D02*
X1061690Y275130D01*
X1061690Y277410D02*
X1059290Y277410D01*
X1068190Y278050D02*
X1068190Y261450D01*
X1065790Y261450D01*
X1065790Y278050D01*
X1068190Y278050D01*
X1068190Y263730D02*
X1065790Y263730D01*
X1065790Y266010D02*
X1068190Y266010D01*
X1068190Y268290D02*
X1065790Y268290D01*
X1065790Y270570D02*
X1068190Y270570D01*
X1068190Y272850D02*
X1065790Y272850D01*
X1065790Y275130D02*
X1068190Y275130D01*
X1068190Y277410D02*
X1065790Y277410D01*
X1074690Y278050D02*
X1074690Y261450D01*
X1072290Y261450D01*
X1072290Y278050D01*
X1074690Y278050D01*
X1074690Y263730D02*
X1072290Y263730D01*
X1072290Y266010D02*
X1074690Y266010D01*
X1074690Y268290D02*
X1072290Y268290D01*
X1072290Y270570D02*
X1074690Y270570D01*
X1074690Y272850D02*
X1072290Y272850D01*
X1072290Y275130D02*
X1074690Y275130D01*
X1074690Y277410D02*
X1072290Y277410D01*
X1081190Y278050D02*
X1081190Y261450D01*
X1078790Y261450D01*
X1078790Y278050D01*
X1081190Y278050D01*
X1081190Y263730D02*
X1078790Y263730D01*
X1078790Y266010D02*
X1081190Y266010D01*
X1081190Y268290D02*
X1078790Y268290D01*
X1078790Y270570D02*
X1081190Y270570D01*
X1081190Y272850D02*
X1078790Y272850D01*
X1078790Y275130D02*
X1081190Y275130D01*
X1081190Y277410D02*
X1078790Y277410D01*
X1087690Y278050D02*
X1087690Y261450D01*
X1085290Y261450D01*
X1085290Y278050D01*
X1087690Y278050D01*
X1087690Y263730D02*
X1085290Y263730D01*
X1085290Y266010D02*
X1087690Y266010D01*
X1087690Y268290D02*
X1085290Y268290D01*
X1085290Y270570D02*
X1087690Y270570D01*
X1087690Y272850D02*
X1085290Y272850D01*
X1085290Y275130D02*
X1087690Y275130D01*
X1087690Y277410D02*
X1085290Y277410D01*
X1094190Y278050D02*
X1094190Y261450D01*
X1091790Y261450D01*
X1091790Y278050D01*
X1094190Y278050D01*
X1094190Y263730D02*
X1091790Y263730D01*
X1091790Y266010D02*
X1094190Y266010D01*
X1094190Y268290D02*
X1091790Y268290D01*
X1091790Y270570D02*
X1094190Y270570D01*
X1094190Y272850D02*
X1091790Y272850D01*
X1091790Y275130D02*
X1094190Y275130D01*
X1094190Y277410D02*
X1091790Y277410D01*
X1100690Y278050D02*
X1100690Y261450D01*
X1098290Y261450D01*
X1098290Y278050D01*
X1100690Y278050D01*
X1100690Y263730D02*
X1098290Y263730D01*
X1098290Y266010D02*
X1100690Y266010D01*
X1100690Y268290D02*
X1098290Y268290D01*
X1098290Y270570D02*
X1100690Y270570D01*
X1100690Y272850D02*
X1098290Y272850D01*
X1098290Y275130D02*
X1100690Y275130D01*
X1100690Y277410D02*
X1098290Y277410D01*
X1107190Y278050D02*
X1107190Y261450D01*
X1104790Y261450D01*
X1104790Y278050D01*
X1107190Y278050D01*
X1107190Y263730D02*
X1104790Y263730D01*
X1104790Y266010D02*
X1107190Y266010D01*
X1107190Y268290D02*
X1104790Y268290D01*
X1104790Y270570D02*
X1107190Y270570D01*
X1107190Y272850D02*
X1104790Y272850D01*
X1104790Y275130D02*
X1107190Y275130D01*
X1107190Y277410D02*
X1104790Y277410D01*
X1113690Y278050D02*
X1113690Y261450D01*
X1111290Y261450D01*
X1111290Y278050D01*
X1113690Y278050D01*
X1113690Y263730D02*
X1111290Y263730D01*
X1111290Y266010D02*
X1113690Y266010D01*
X1113690Y268290D02*
X1111290Y268290D01*
X1111290Y270570D02*
X1113690Y270570D01*
X1113690Y272850D02*
X1111290Y272850D01*
X1111290Y275130D02*
X1113690Y275130D01*
X1113690Y277410D02*
X1111290Y277410D01*
X1120190Y278050D02*
X1120190Y261450D01*
X1117790Y261450D01*
X1117790Y278050D01*
X1120190Y278050D01*
X1120190Y263730D02*
X1117790Y263730D01*
X1117790Y266010D02*
X1120190Y266010D01*
X1120190Y268290D02*
X1117790Y268290D01*
X1117790Y270570D02*
X1120190Y270570D01*
X1120190Y272850D02*
X1117790Y272850D01*
X1117790Y275130D02*
X1120190Y275130D01*
X1120190Y277410D02*
X1117790Y277410D01*
X1126690Y278050D02*
X1126690Y261450D01*
X1124290Y261450D01*
X1124290Y278050D01*
X1126690Y278050D01*
X1126690Y263730D02*
X1124290Y263730D01*
X1124290Y266010D02*
X1126690Y266010D01*
X1126690Y268290D02*
X1124290Y268290D01*
X1124290Y270570D02*
X1126690Y270570D01*
X1126690Y272850D02*
X1124290Y272850D01*
X1124290Y275130D02*
X1126690Y275130D01*
X1126690Y277410D02*
X1124290Y277410D01*
X1126690Y331550D02*
X1126690Y348150D01*
X1126690Y331550D02*
X1124290Y331550D01*
X1124290Y348150D01*
X1126690Y348150D01*
X1126690Y333830D02*
X1124290Y333830D01*
X1124290Y336110D02*
X1126690Y336110D01*
X1126690Y338390D02*
X1124290Y338390D01*
X1124290Y340670D02*
X1126690Y340670D01*
X1126690Y342950D02*
X1124290Y342950D01*
X1124290Y345230D02*
X1126690Y345230D01*
X1126690Y347510D02*
X1124290Y347510D01*
X1120190Y348150D02*
X1120190Y331550D01*
X1117790Y331550D01*
X1117790Y348150D01*
X1120190Y348150D01*
X1120190Y333830D02*
X1117790Y333830D01*
X1117790Y336110D02*
X1120190Y336110D01*
X1120190Y338390D02*
X1117790Y338390D01*
X1117790Y340670D02*
X1120190Y340670D01*
X1120190Y342950D02*
X1117790Y342950D01*
X1117790Y345230D02*
X1120190Y345230D01*
X1120190Y347510D02*
X1117790Y347510D01*
X1113690Y348150D02*
X1113690Y331550D01*
X1111290Y331550D01*
X1111290Y348150D01*
X1113690Y348150D01*
X1113690Y333830D02*
X1111290Y333830D01*
X1111290Y336110D02*
X1113690Y336110D01*
X1113690Y338390D02*
X1111290Y338390D01*
X1111290Y340670D02*
X1113690Y340670D01*
X1113690Y342950D02*
X1111290Y342950D01*
X1111290Y345230D02*
X1113690Y345230D01*
X1113690Y347510D02*
X1111290Y347510D01*
X1107190Y348150D02*
X1107190Y331550D01*
X1104790Y331550D01*
X1104790Y348150D01*
X1107190Y348150D01*
X1107190Y333830D02*
X1104790Y333830D01*
X1104790Y336110D02*
X1107190Y336110D01*
X1107190Y338390D02*
X1104790Y338390D01*
X1104790Y340670D02*
X1107190Y340670D01*
X1107190Y342950D02*
X1104790Y342950D01*
X1104790Y345230D02*
X1107190Y345230D01*
X1107190Y347510D02*
X1104790Y347510D01*
X1100690Y348150D02*
X1100690Y331550D01*
X1098290Y331550D01*
X1098290Y348150D01*
X1100690Y348150D01*
X1100690Y333830D02*
X1098290Y333830D01*
X1098290Y336110D02*
X1100690Y336110D01*
X1100690Y338390D02*
X1098290Y338390D01*
X1098290Y340670D02*
X1100690Y340670D01*
X1100690Y342950D02*
X1098290Y342950D01*
X1098290Y345230D02*
X1100690Y345230D01*
X1100690Y347510D02*
X1098290Y347510D01*
X1094190Y348150D02*
X1094190Y331550D01*
X1091790Y331550D01*
X1091790Y348150D01*
X1094190Y348150D01*
X1094190Y333830D02*
X1091790Y333830D01*
X1091790Y336110D02*
X1094190Y336110D01*
X1094190Y338390D02*
X1091790Y338390D01*
X1091790Y340670D02*
X1094190Y340670D01*
X1094190Y342950D02*
X1091790Y342950D01*
X1091790Y345230D02*
X1094190Y345230D01*
X1094190Y347510D02*
X1091790Y347510D01*
X1087690Y348150D02*
X1087690Y331550D01*
X1085290Y331550D01*
X1085290Y348150D01*
X1087690Y348150D01*
X1087690Y333830D02*
X1085290Y333830D01*
X1085290Y336110D02*
X1087690Y336110D01*
X1087690Y338390D02*
X1085290Y338390D01*
X1085290Y340670D02*
X1087690Y340670D01*
X1087690Y342950D02*
X1085290Y342950D01*
X1085290Y345230D02*
X1087690Y345230D01*
X1087690Y347510D02*
X1085290Y347510D01*
X1081190Y348150D02*
X1081190Y331550D01*
X1078790Y331550D01*
X1078790Y348150D01*
X1081190Y348150D01*
X1081190Y333830D02*
X1078790Y333830D01*
X1078790Y336110D02*
X1081190Y336110D01*
X1081190Y338390D02*
X1078790Y338390D01*
X1078790Y340670D02*
X1081190Y340670D01*
X1081190Y342950D02*
X1078790Y342950D01*
X1078790Y345230D02*
X1081190Y345230D01*
X1081190Y347510D02*
X1078790Y347510D01*
X1074690Y348150D02*
X1074690Y331550D01*
X1072290Y331550D01*
X1072290Y348150D01*
X1074690Y348150D01*
X1074690Y333830D02*
X1072290Y333830D01*
X1072290Y336110D02*
X1074690Y336110D01*
X1074690Y338390D02*
X1072290Y338390D01*
X1072290Y340670D02*
X1074690Y340670D01*
X1074690Y342950D02*
X1072290Y342950D01*
X1072290Y345230D02*
X1074690Y345230D01*
X1074690Y347510D02*
X1072290Y347510D01*
X1068190Y348150D02*
X1068190Y331550D01*
X1065790Y331550D01*
X1065790Y348150D01*
X1068190Y348150D01*
X1068190Y333830D02*
X1065790Y333830D01*
X1065790Y336110D02*
X1068190Y336110D01*
X1068190Y338390D02*
X1065790Y338390D01*
X1065790Y340670D02*
X1068190Y340670D01*
X1068190Y342950D02*
X1065790Y342950D01*
X1065790Y345230D02*
X1068190Y345230D01*
X1068190Y347510D02*
X1065790Y347510D01*
X1061690Y348150D02*
X1061690Y331550D01*
X1059290Y331550D01*
X1059290Y348150D01*
X1061690Y348150D01*
X1061690Y333830D02*
X1059290Y333830D01*
X1059290Y336110D02*
X1061690Y336110D01*
X1061690Y338390D02*
X1059290Y338390D01*
X1059290Y340670D02*
X1061690Y340670D01*
X1061690Y342950D02*
X1059290Y342950D01*
X1059290Y345230D02*
X1061690Y345230D01*
X1061690Y347510D02*
X1059290Y347510D01*
X1055190Y348150D02*
X1055190Y331550D01*
X1052790Y331550D01*
X1052790Y348150D01*
X1055190Y348150D01*
X1055190Y333830D02*
X1052790Y333830D01*
X1052790Y336110D02*
X1055190Y336110D01*
X1055190Y338390D02*
X1052790Y338390D01*
X1052790Y340670D02*
X1055190Y340670D01*
X1055190Y342950D02*
X1052790Y342950D01*
X1052790Y345230D02*
X1055190Y345230D01*
X1055190Y347510D02*
X1052790Y347510D01*
D16*
X427990Y334140D03*
X422990Y334140D03*
X417990Y334140D03*
X412990Y334140D03*
X407990Y334140D03*
X402990Y334140D03*
X397990Y334140D03*
X392990Y334140D03*
X387990Y334140D03*
X382990Y334140D03*
X377990Y334140D03*
X372990Y334140D03*
X367990Y334140D03*
X362990Y334140D03*
X357990Y334140D03*
X352990Y334140D03*
D17*
X332990Y314140D03*
X332990Y309140D03*
X332990Y304140D03*
X332990Y299140D03*
X332990Y294140D03*
X332990Y289140D03*
X332990Y284140D03*
X332990Y279140D03*
X332990Y274140D03*
X332990Y269140D03*
X332990Y264140D03*
X332990Y259140D03*
X332990Y254140D03*
X332990Y249140D03*
X332990Y244140D03*
X332990Y239140D03*
D16*
X352990Y219140D03*
X357990Y219140D03*
X362990Y219140D03*
X367990Y219140D03*
X372990Y219140D03*
X377990Y219140D03*
X382990Y219140D03*
X387990Y219140D03*
X392990Y219140D03*
X397990Y219140D03*
X402990Y219140D03*
X407990Y219140D03*
X412990Y219140D03*
X417990Y219140D03*
X422990Y219140D03*
X427990Y219140D03*
D17*
X447990Y239140D03*
X447990Y244140D03*
X447990Y249140D03*
X447990Y254140D03*
X447990Y259140D03*
X447990Y264140D03*
X447990Y269140D03*
X447990Y274140D03*
X447990Y279140D03*
X447990Y284140D03*
X447990Y289140D03*
X447990Y294140D03*
X447990Y299140D03*
X447990Y304140D03*
X447990Y309140D03*
X447990Y314140D03*
D12*
X1112520Y242180D03*
X1112520Y225180D03*
D14*
X1158240Y359020D03*
X1158240Y342020D03*
X1158240Y242180D03*
X1158240Y225180D03*
X1135380Y242180D03*
X1135380Y225180D03*
D12*
X276860Y237100D03*
X276860Y220100D03*
X297180Y220100D03*
X297180Y237100D03*
X292100Y293760D03*
X292100Y310760D03*
D14*
X422520Y193040D03*
X405520Y193040D03*
D12*
X472440Y334890D03*
X472440Y317890D03*
D14*
X438540Y358140D03*
X455540Y358140D03*
D12*
X322580Y359800D03*
X322580Y376800D03*
X271780Y293760D03*
X271780Y310760D03*
X492760Y334890D03*
X492760Y317890D03*
X347980Y359800D03*
X347980Y376800D03*
X703190Y347980D03*
X686190Y347980D03*
D18*
X143080Y333400D03*
X143080Y352400D03*
X121080Y342900D03*
X143080Y287680D03*
X143080Y306680D03*
X121080Y297180D03*
D12*
X509660Y353060D03*
X526660Y353060D03*
D19*
X311820Y80010D03*
X363820Y80010D03*
X311820Y92710D03*
X311820Y67310D03*
X311820Y54610D03*
X363820Y92710D03*
X363820Y67310D03*
X363820Y54610D03*
D14*
X205740Y293760D03*
X205740Y310760D03*
X185420Y310760D03*
X185420Y293760D03*
X175260Y347100D03*
X175260Y364100D03*
D20*
X264160Y368300D03*
X279400Y368300D03*
X294640Y368300D03*
M02*
